<svg width="54" height="52" viewBox="0 0 54 52" fill="none" xmlns="http://www.w3.org/2000/svg">
<circle cx="26.7732" cy="25.82" r="25.3897" stroke="#148FE9" stroke-width="0.860668"/>
<path d="M25.5859 40.1693C24.4271 40.1693 23.3193 39.7018 21.105 38.7668C15.5928 36.4378 12.8359 35.2719 12.8359 33.3126V18.9193M25.5859 40.1693V25.0889M25.5859 40.1693C26.0676 40.1693 26.5011 40.0885 27.0026 39.9256M38.3359 18.9193V25.2943M35.5026 34.5026L36.7861 33.2205M17.0859 26.0026L19.9193 27.4193M32.6693 14.6693L18.5026 21.7526M41.1693 34.5026C41.1693 32.9997 40.5722 31.5584 39.5095 30.4957C38.4468 29.433 37.0055 28.8359 35.5026 28.8359C33.9997 28.8359 32.5584 29.433 31.4957 30.4957C30.433 31.5584 29.8359 32.9997 29.8359 34.5026C29.8359 36.0055 30.433 37.4468 31.4957 38.5095C32.5584 39.5722 33.9997 40.1693 35.5026 40.1693C37.0055 40.1693 38.4468 39.5722 39.5095 38.5095C40.5722 37.4468 41.1693 36.0055 41.1693 34.5026ZM20.3811 22.7315L16.243 20.7298C13.9721 19.6304 12.8359 19.0808 12.8359 18.2109C12.8359 17.3411 13.9721 16.7914 16.243 15.6921L20.3797 13.6904C22.9368 12.4536 24.2118 11.8359 25.5859 11.8359C26.9601 11.8359 28.2365 12.4536 30.7908 13.6904L34.9289 15.6921C37.1998 16.7914 38.3359 17.3411 38.3359 18.2109C38.3359 19.0808 37.1998 19.6304 34.9289 20.7298L30.7922 22.7315C28.2351 23.9683 26.9601 24.5859 25.5859 24.5859C24.2118 24.5859 22.9354 23.9683 20.3811 22.7315Z" stroke="#148FE9" stroke-width="2.125" stroke-linecap="round" stroke-linejoin="round"/>
</svg>
