<svg width="30" height="21" viewBox="0 0 30 21" fill="none" xmlns="http://www.w3.org/2000/svg">
<g id="Vector">
<path d="M26.7504 18.3753H24.1254C23.4035 18.3753 22.8129 17.7847 22.8129 17.0628C22.8129 16.3409 23.4035 15.7503 24.1254 15.7503H26.7504V11.0384L22.2747 6.56261H18.8753V17.0628C18.8753 17.7847 18.2847 18.3753 17.5628 18.3753C16.8409 18.3753 16.2503 17.7847 16.2503 17.0628V2.62504H3.12504V15.7503H5.75009C6.47198 15.7503 7.06261 16.3409 7.06261 17.0628C7.06261 17.7847 6.47198 18.3753 5.75009 18.3753H3.12504C1.60252 18.3753 0.5 17.2728 0.5 15.7503V2.62504C0.5 1.10252 1.60252 0 3.12504 0H16.2503C17.7728 0 18.8753 1.10252 18.8753 2.62504V3.93757H22.8129C23.1673 3.93757 23.4954 4.082 23.7448 4.31825L28.9949 9.56834C29.2442 9.81772 29.3755 10.1458 29.3755 10.5002V15.7503C29.3755 17.2728 28.273 18.3753 26.7504 18.3753Z" fill="#151E3A"/>
<path d="M8.37513 21.0004C6.20947 21.0004 4.43757 19.2284 4.43757 17.0628C4.43757 14.8971 6.20947 13.1252 8.37513 13.1252C10.5408 13.1252 12.3127 14.8971 12.3127 17.0628C12.3127 19.2284 10.5408 21.0004 8.37513 21.0004ZM8.37513 15.7503C7.65325 15.7503 7.06261 16.3409 7.06261 17.0628C7.06261 17.7847 7.65325 18.3753 8.37513 18.3753C9.09702 18.3753 9.68766 17.7847 9.68766 17.0628C9.68766 16.3409 9.09702 15.7503 8.37513 15.7503Z" fill="#151E3A"/>
<path d="M18.8753 18.3753H11.0002C10.2783 18.3753 9.68766 17.7847 9.68766 17.0628C9.68766 16.3409 10.2783 15.7503 11.0002 15.7503H18.8753C19.5972 15.7503 20.1878 16.3409 20.1878 17.0628C20.1878 17.7847 19.5972 18.3753 18.8753 18.3753Z" fill="#151E3A"/>
<path d="M21.5004 21.0004C19.3347 21.0004 17.5628 19.2284 17.5628 17.0628C17.5628 14.8971 19.3347 13.1252 21.5004 13.1252C23.666 13.1252 25.4379 14.8971 25.4379 17.0628C25.4379 19.2284 23.666 21.0004 21.5004 21.0004ZM21.5004 15.7503C20.7785 15.7503 20.1878 16.3409 20.1878 17.0628C20.1878 17.7847 20.7785 18.3753 21.5004 18.3753C22.2222 18.3753 22.8129 17.7847 22.8129 17.0628C22.8129 16.3409 22.2222 15.7503 21.5004 15.7503Z" fill="#151E3A"/>
</g>
</svg>
