<svg width="54" height="52" viewBox="0 0 54 52" fill="none" xmlns="http://www.w3.org/2000/svg">
<circle cx="26.7732" cy="25.82" r="25.3897" stroke="#148FE9" stroke-width="0.860668"/>
<path d="M34.4127 15.4705C31.6362 15.4887 28.979 16.6012 27.0177 18.5665C25.0772 20.5115 23.9721 23.1368 23.9374 25.884C23.9027 28.6312 24.941 31.2836 26.8317 33.277L30.4242 29.6845C29.4879 28.6431 28.9869 27.2822 29.0242 25.8824C29.0615 24.4825 29.6344 23.1503 30.6248 22.1602C31.6152 21.1702 32.9477 20.5978 34.3476 20.5611C35.7475 20.5243 37.1081 21.0259 38.1492 21.9625L41.7447 18.364C39.7668 16.4874 37.139 15.4514 34.4127 15.4705ZM19.6062 15.484C16.8796 15.4653 14.2518 16.5034 12.2742 18.3805L15.8607 21.967C16.9009 21.0254 18.2634 20.52 19.666 20.5555C21.0686 20.5909 22.4039 21.1645 23.3952 22.1575L25.9962 17.698L25.8462 17.578C24.0429 16.2321 21.8563 15.4984 19.6062 15.484ZM42.1212 18.742L38.5362 22.327C39.479 23.3673 39.9856 24.7304 39.9511 26.1339C39.9166 27.5375 39.3437 28.874 38.3509 29.8667C37.3582 30.8595 36.0216 31.4324 34.6181 31.4669C33.2145 31.5014 31.8515 30.9948 30.8112 30.052L27.2022 33.6625C29.2001 35.5445 31.8525 36.5741 34.5969 36.533C37.3413 36.4919 39.9618 35.3833 41.9024 33.4423C43.843 31.5013 44.9511 28.8806 44.9917 26.1362C45.0322 23.3918 44.0036 20.7395 42.1212 18.742ZM11.8977 18.757C10.0377 20.7167 9.00056 23.3153 9 26.0172C8.99944 28.719 10.0355 31.318 11.8947 33.2785L15.4902 29.683C14.5788 28.6787 14.0734 27.3714 14.0723 26.0152C14.0712 24.659 14.5744 23.3508 15.4842 22.345L11.8977 18.757ZM23.3937 29.8915C22.4015 30.8816 21.0662 31.4517 19.6649 31.4832C18.2635 31.5148 16.9039 31.0055 15.8682 30.061L12.2742 33.6565C14.0722 35.3565 16.4108 36.37 18.8807 36.5197C21.3506 36.6695 23.7945 35.9458 25.7847 34.4755L25.9902 34.3075L23.3937 29.8915Z" fill="#148FE9"/>
</svg>
