<svg width="54" height="53" viewBox="0 0 54 53" fill="none" xmlns="http://www.w3.org/2000/svg">
<circle cx="26.7732" cy="26.32" r="25.3897" stroke="#148FE9" stroke-width="0.860668"/>
<path d="M27.7278 13.3984H26.3264C25.5445 13.4099 24.763 13.4411 23.9827 13.4922C18.1153 13.8814 13.4406 18.6135 13.0556 24.5552C12.9815 25.73 12.9815 26.9084 13.0556 28.0832C13.1956 30.2476 14.1546 32.2496 15.283 33.9423C15.9383 35.1267 15.507 36.6037 14.8238 37.8945C14.331 38.8255 14.086 39.2917 14.2834 39.6277C14.4794 39.9637 14.9218 39.9749 15.8039 39.9959C17.5497 40.0379 18.7271 39.5451 19.6609 38.8563C20.1915 38.4671 20.4561 38.2725 20.6381 38.2501C20.8201 38.2277 21.1813 38.3761 21.8981 38.6701C22.5449 38.9361 23.2953 39.0999 23.9841 39.1461C25.9806 39.2777 28.0722 39.2777 30.0742 39.1461C35.7009 38.7709 40.2999 34.3987 40.9985 28.7986" stroke="#148FE9" stroke-width="2.10002" stroke-linecap="round" stroke-linejoin="round"/>
<path d="M22.1016 30.2002H31.9017M22.1016 23.2001H24.9016M32.0277 21.3073C31.1471 21.8239 28.8398 22.8767 30.2455 24.1955C30.9315 24.8395 31.6973 25.3001 32.6577 25.3001H38.1457C39.1061 25.3001 39.872 24.8395 40.558 24.1955C41.9636 22.8767 39.6564 21.8239 38.7757 21.3073C37.7508 20.7123 36.5868 20.3989 35.4017 20.3989C34.2166 20.3989 33.0526 20.7123 32.0277 21.3073ZM38.2017 14.8C38.2017 15.5426 37.9067 16.2548 37.3816 16.78C36.8565 17.3051 36.1443 17.6001 35.4017 17.6001C34.6591 17.6001 33.9469 17.3051 33.4218 16.78C32.8967 16.2548 32.6017 15.5426 32.6017 14.8C32.6017 14.0574 32.8967 13.3452 33.4218 12.8201C33.9469 12.295 34.6591 12 35.4017 12C36.1443 12 36.8565 12.295 37.3816 12.8201C37.9067 13.3452 38.2017 14.0574 38.2017 14.8Z" stroke="#148FE9" stroke-width="2.10002" stroke-linecap="round" stroke-linejoin="round"/>
</svg>
