<svg width="53" height="52" viewBox="0 0 53 52" fill="none" xmlns="http://www.w3.org/2000/svg">
<circle cx="26.7302" cy="25.82" r="25.3897" stroke="#148FE9" stroke-width="0.860668"/>
<path d="M25.957 25.0391C26.8223 25.0391 27.6682 24.7825 28.3877 24.3017C29.1071 23.821 29.6679 23.1377 29.999 22.3383C30.3301 21.5389 30.4168 20.6592 30.248 19.8105C30.0792 18.9619 29.6625 18.1823 29.0506 17.5705C28.4388 16.9586 27.6592 16.5419 26.8106 16.3731C25.9619 16.2043 25.0822 16.291 24.2828 16.6221C23.4834 16.9532 22.8001 17.514 22.3194 18.2334C21.8386 18.9529 21.582 19.7988 21.582 20.6641C21.582 21.8244 22.043 22.9372 22.8634 23.7577C23.6839 24.5781 24.7967 25.0391 25.957 25.0391ZM25.957 19.2057C26.2455 19.2057 26.5274 19.2913 26.7672 19.4515C27.0071 19.6117 27.194 19.8395 27.3044 20.106C27.4147 20.3725 27.4436 20.6657 27.3873 20.9486C27.3311 21.2315 27.1922 21.4913 26.9882 21.6953C26.7843 21.8992 26.5244 22.0381 26.2415 22.0944C25.9586 22.1506 25.6654 22.1218 25.3989 22.0114C25.1325 21.901 24.9047 21.7141 24.7445 21.4743C24.5842 21.2344 24.4987 20.9525 24.4987 20.6641C24.4987 20.2773 24.6523 19.9064 24.9258 19.6329C25.1993 19.3594 25.5703 19.2057 25.957 19.2057ZM31.9508 24.8349C32.804 23.6114 33.2614 22.1557 33.2614 20.6641C33.2614 19.1725 32.804 17.7167 31.9508 16.4932C32.3701 16.358 32.8081 16.2891 33.2487 16.2891C34.409 16.2891 35.5218 16.75 36.3423 17.5705C37.1628 18.3909 37.6237 19.5037 37.6237 20.6641C37.6237 21.8244 37.1628 22.9372 36.3423 23.7577C35.5218 24.5781 34.409 25.0391 33.2487 25.0391C32.8081 25.039 32.3701 24.9702 31.9508 24.8349ZM25.957 27.9557C17.207 27.9557 17.207 33.7891 17.207 33.7891V36.7057H34.707V33.7891C34.707 33.7891 34.707 27.9557 25.957 27.9557ZM20.1237 33.7891C20.1237 33.3661 20.5904 30.8724 25.957 30.8724C31.0612 30.8724 31.7029 33.1474 31.7904 33.7891M41.9987 33.7891V36.7057H37.6237V33.7891C37.5896 32.705 37.3399 31.6386 36.8893 30.6521C36.4386 29.6655 35.7959 28.7787 34.9987 28.0432C41.9987 28.7578 41.9987 33.7891 41.9987 33.7891ZM17.7029 22.0057L19.3945 24.062L12.4674 30.9891L8.45703 26.6141L10.1487 24.9224L12.4674 27.2266L17.7029 22.0057Z" fill="#148FE9"/>
</svg>
