<svg width="54" height="53" viewBox="0 0 54 53" fill="none" xmlns="http://www.w3.org/2000/svg">
<circle cx="26.7732" cy="26.32" r="25.3897" stroke="#148FE9" stroke-width="0.860668"/>
<path d="M31.6562 13.0234L43 17.6644V28.0143L40.9375 27.1705V19.5498L32.6875 22.9251V26.3267L30.625 27.1705V22.9251L22.375 19.5498V22.5427L20.3125 21.6989V17.6644L31.6562 13.0234ZM31.6562 21.4616L34.5083 20.2882L27.0479 16.7942L23.6479 18.1918L31.6562 21.4616ZM36.7319 19.3916L39.6646 18.1918L31.6562 14.9088L29.2554 15.8977L36.7319 19.3916ZM28.5625 28.0143L26.5 28.8581V28.845L20.3125 31.3764V37.3754L26.5 34.8308V36.7294L19.2812 39.6827L10 35.8724V26.9596L19.2812 23.1624L28.5625 26.9596V28.0143ZM18.25 37.3754V31.3764L12.0625 28.845V34.8308L18.25 37.3754ZM19.2812 29.9129L25.2271 27.4869L19.2812 25.0478L13.3354 27.4869L19.2812 29.9129ZM28.5625 29.8997L35.7812 26.9464L43 29.8997V36.848L35.7812 39.8014L28.5625 36.848V29.8997ZM34.75 37.4941V33.4728L30.625 31.7851V35.8064L34.75 37.4941ZM40.9375 35.8064V31.7851L36.8125 33.4728V37.4941L40.9375 35.8064ZM35.7812 32.0093L39.6646 30.4139L35.7812 28.8318L31.8979 30.4139L35.7812 32.0093Z" fill="#148FE9"/>
</svg>
