<svg width="73" height="72" viewBox="0 0 73 72" fill="none" xmlns="http://www.w3.org/2000/svg">
<circle cx="36.5" cy="36" r="35.4" stroke="#148FE9" stroke-width="1.2"/>
<path d="M49.7684 22.8573C50.3049 23.334 50.8215 23.829 51.3281 24.3372C51.406 24.4116 51.4839 24.4859 51.5642 24.5626C53.7429 26.6657 55.2241 29.4211 56.2031 32.2591C56.2288 32.3334 56.2544 32.4077 56.2809 32.4843C57.0373 34.7295 57.2188 37.0105 57.2188 39.3685C51.9233 39.3685 46.6278 39.3685 41.1719 39.3685C41.1719 37.7388 41.1719 37.7388 41.7495 37.1024C41.8717 36.9558 41.9937 36.8091 42.1157 36.6624C42.1785 36.5892 42.2412 36.5161 42.3059 36.4408C42.602 36.09 42.8761 35.7233 43.1523 35.3567C43.2623 35.2128 43.3723 35.0689 43.4824 34.9251C43.5369 34.8539 43.5913 34.7827 43.6475 34.7093C44.1426 34.0618 44.1426 34.0618 44.3079 33.8457C44.4171 33.7028 44.5263 33.56 44.6355 33.417C44.9224 33.0415 45.21 32.6666 45.4986 32.2924C45.5585 32.2146 45.6184 32.1367 45.6801 32.0566C45.7945 31.9079 45.9092 31.7594 46.0241 31.611C46.5001 30.9918 46.8223 30.5695 46.7923 29.7645C46.7389 29.3811 46.621 29.1837 46.3516 28.9075C45.9283 28.6444 45.6512 28.585 45.153 28.6643C44.6823 28.7956 44.3484 29.0431 43.9712 29.3455C43.9017 29.3994 43.8323 29.4533 43.7607 29.5088C43.6141 29.6226 43.4679 29.7369 43.3221 29.8516C43.0366 30.0757 42.748 30.2954 42.4592 30.5151C42.2425 30.6801 42.0263 30.8456 41.8102 31.0114C41.3777 31.343 40.9447 31.6742 40.5117 32.0052C40.0646 32.3471 39.6174 32.6891 39.1704 33.0311C39.0921 33.091 39.0138 33.1509 38.9331 33.2126C38.7833 33.3273 38.6335 33.4419 38.4836 33.5566C38.3515 33.6577 38.2189 33.7583 38.0859 33.8582C37.9113 33.9893 37.9113 33.9893 37.7271 34.1725C37.3743 34.3691 36.9982 34.3311 36.6016 34.3348C35.1661 34.3835 34.0617 34.7729 33.0401 35.8273C32.1402 36.9118 31.9354 37.9733 31.8281 39.3685C26.5327 39.3685 21.2372 39.3685 15.7812 39.3685C15.7812 37.1114 15.7812 37.1114 15.9019 36.2327C15.9154 36.131 15.9289 36.0292 15.9428 35.9244C16.53 31.7592 18.3156 27.952 21.1688 24.8593C21.3295 24.6832 21.4799 24.5051 21.6274 24.3182C21.9506 23.9453 22.3116 23.64 22.6875 23.3216C22.8269 23.1975 22.8269 23.1975 22.9692 23.0709C29.7333 17.0966 40.1627 16.4829 49.7684 22.8573ZM37.8203 20.7825C37.6853 20.8945 37.6853 20.8945 37.7072 21.1753C37.7078 21.3024 37.7083 21.4295 37.7088 21.5605C37.709 21.628 37.7091 21.6955 37.7093 21.765C37.7098 21.9813 37.7111 22.1976 37.7124 22.4139C37.7129 22.5602 37.7134 22.7065 37.7138 22.8529C37.7149 23.2122 37.7167 23.5716 37.7188 23.931C37.7814 23.9395 37.8441 23.9481 37.9087 23.957C40.9959 24.3926 43.5449 25.4358 46.0469 27.2825C46.3989 27.1315 46.6248 26.9314 46.8927 26.6597C46.9739 26.5778 47.055 26.496 47.1387 26.4117C47.2644 26.2835 47.2644 26.2835 47.3926 26.1526C47.4779 26.0664 47.5633 25.9801 47.6512 25.8912C47.8617 25.6783 48.0717 25.465 48.2812 25.2513C47.8866 24.7274 47.4526 24.3783 46.9102 24.0135C46.8257 23.9565 46.7412 23.8995 46.6542 23.8408C44.0593 22.1253 40.9713 20.8484 37.8203 20.7825ZM34.4588 20.8214C34.3784 20.8328 34.2981 20.8442 34.2152 20.856C34.1292 20.8695 34.0432 20.8829 33.9546 20.8968C33.8645 20.9108 33.7744 20.9249 33.6816 20.9394C30.3855 21.4802 27.1845 22.8685 24.7188 25.1497C25.1492 25.6643 25.5997 26.1451 26.0771 26.616C26.1422 26.6806 26.2073 26.7452 26.2743 26.8118C26.4326 26.969 26.5912 27.1259 26.75 27.2825C27.1943 27.1322 27.5351 26.8891 27.9053 26.6097C30.1184 24.9951 32.5958 24.3146 35.2812 23.931C35.2812 22.9255 35.2812 21.92 35.2812 20.8841C34.931 20.7965 34.7939 20.7737 34.4588 20.8214ZM22.7387 27.1242C20.1462 29.9567 18.7934 33.7611 18.5234 37.5403C19.5289 37.5403 20.5344 37.5403 21.5703 37.5403C21.6415 37.1423 21.7128 36.7443 21.7861 36.3343C22.2925 33.6702 23.3166 31.339 25.0234 29.2122C24.8727 28.8617 24.6737 28.6345 24.4041 28.3664C24.3228 28.2852 24.2414 28.204 24.1576 28.1204C24.0725 28.0366 23.9875 27.9528 23.8999 27.8665C23.8145 27.7812 23.7291 27.6958 23.641 27.6078C23.2318 27.0664 23.2318 27.0664 22.7387 27.1242ZM50.0078 26.9778C49.3375 27.6482 48.6672 28.3185 47.9766 29.0091C48.1543 29.4535 48.2795 29.658 48.5732 30.012C50.2981 32.2747 50.9385 34.7952 51.4297 37.5403C52.4352 37.5403 53.4406 37.5403 54.4766 37.5403C54.413 36.6505 54.3525 35.8457 54.1592 34.9886C54.1369 34.889 54.1146 34.7895 54.0916 34.6869C53.5157 32.2176 52.2385 28.465 50.0078 26.9778Z" fill="#148FE9"/>
<path d="M45.3378 29.9219C45.3881 30.0727 45.3881 30.0727 45.4393 30.2266C45.2652 30.4748 45.0889 30.7006 44.8934 30.9312C44.7792 31.0698 44.665 31.2085 44.5511 31.3473C44.4944 31.4159 44.4377 31.4846 44.3793 31.5553C44.1687 31.8137 43.9685 32.079 43.7699 32.3467C43.4077 32.8342 43.0411 33.3181 42.6718 33.8003C42.616 33.8732 42.5602 33.946 42.5027 34.0211C42.3882 34.1706 42.2737 34.3201 42.1591 34.4695C41.9872 34.694 41.8155 34.9186 41.6438 35.1432C41.5879 35.2164 41.532 35.2895 41.4744 35.3648C41.3637 35.5098 41.2532 35.6548 41.1428 35.8C40.8839 36.14 40.6227 36.4773 40.3537 36.8095C40.3055 36.8697 40.2574 36.9299 40.2078 36.9919C40.0781 37.1535 39.9472 37.314 39.8161 37.4744C39.6271 37.7177 39.6271 37.7177 39.6729 37.9362C39.6989 38.0062 39.725 38.0763 39.7518 38.1484C39.8339 39.2918 39.7586 40.2106 39.0155 41.1255C38.4304 41.7457 37.7365 42.1576 36.8779 42.2451C35.7624 42.2577 34.9639 42.0658 34.1409 41.2893C33.3881 40.4627 33.2035 39.6268 33.2197 38.5241C33.2628 38.0202 33.394 37.6609 33.6581 37.2344C33.7115 37.1395 33.7115 37.1395 33.766 37.0428C34.1997 36.3486 34.907 35.9158 35.6893 35.7109C35.9688 35.6946 36.2359 35.687 36.5145 35.6919C36.6216 35.692 36.6216 35.692 36.7308 35.6921C37.2722 35.6967 37.2722 35.6967 37.5373 35.7863C37.7393 35.8357 37.7393 35.8357 37.9475 35.6653C38.074 35.5528 38.074 35.5528 38.203 35.438C38.6589 35.0467 39.1229 34.6781 39.6058 34.3208C40.2022 33.8776 40.7916 33.4265 41.3768 32.9688C42.0213 32.4649 42.6716 31.97 43.3276 31.4813C44.0072 30.9736 44.6734 30.4493 45.3378 29.9219Z" fill="#148FE9"/>
<path d="M15.4766 42.1094C17.2529 42.1094 19.0292 42.1094 20.8594 42.1094C20.8594 42.8132 20.8594 43.517 20.8594 44.2422C19.7869 44.2422 18.7144 44.2422 17.6094 44.2422C17.6094 44.812 17.6094 45.3817 17.6094 45.9688C18.6819 45.9688 19.7544 45.9688 20.8594 45.9688C20.8594 46.6726 20.8594 47.3764 20.8594 48.1016C19.7869 48.1016 18.7144 48.1016 17.6094 48.1016C17.6094 48.6378 17.6094 49.1741 17.6094 49.7266C18.6819 49.7266 19.7544 49.7266 20.8594 49.7266C20.8594 50.4304 20.8594 51.1342 20.8594 51.8594C19.083 51.8594 17.3067 51.8594 15.4766 51.8594C15.4766 48.6419 15.4766 45.4244 15.4766 42.1094Z" fill="#148FE9"/>
<path d="M52.1406 42.1094C53.917 42.1094 55.6933 42.1094 57.5234 42.1094C57.5234 42.8132 57.5234 43.517 57.5234 44.2422C56.4509 44.2422 55.3784 44.2422 54.2734 44.2422C54.2734 44.812 54.2734 45.3817 54.2734 45.9688C55.3459 45.9688 56.4184 45.9688 57.5234 45.9688C57.5234 46.6726 57.5234 47.3764 57.5234 48.1016C56.4509 48.1016 55.3784 48.1016 54.2734 48.1016C54.2734 49.1741 54.2734 50.2466 54.2734 51.3516C53.5696 51.3516 52.8658 51.3516 52.1406 51.3516C52.1406 48.3016 52.1406 45.2517 52.1406 42.1094Z" fill="#148FE9"/>
</svg>
