<svg width="53" height="52" viewBox="0 0 53 52" fill="none" xmlns="http://www.w3.org/2000/svg">
<circle cx="26.7302" cy="25.82" r="25.3897" stroke="#148FE9" stroke-width="0.860668"/>
<path d="M39.8513 20.9841C41.5701 19.2654 40.7863 17.2579 39.8513 16.2816L35.7263 12.1566C33.9938 10.4379 32.0001 11.2216 31.0238 12.1566L28.6863 14.5079H25.1251C22.5126 14.5079 21.0001 15.8829 20.2301 17.4641L14.1251 23.5691V29.0691L13.1488 30.0316C11.4301 31.7641 12.2138 33.7579 13.1488 34.7341L17.2738 38.8591C18.0163 39.6016 18.8138 39.8766 19.5701 39.8766C20.5463 39.8766 21.4401 39.3954 21.9763 38.8591L25.6888 35.1329H30.6251C32.9626 35.1329 34.1451 33.6754 34.5713 32.2454C36.1251 31.8329 36.9776 30.6504 37.3213 29.4954C39.4526 28.9454 40.2501 26.9241 40.2501 25.5079V21.3829H39.4388L39.8513 20.9841ZM37.5001 25.5079C37.5001 26.1266 37.2388 26.8829 36.1251 26.8829H34.7501V28.2579C34.7501 28.8766 34.4888 29.6329 33.3751 29.6329H32.0001V31.0079C32.0001 31.6266 31.7388 32.3829 30.6251 32.3829H24.5613L20.0513 36.8929C19.6251 37.2916 19.3776 37.0579 19.2263 36.9066L15.1151 32.8091C14.7163 32.3829 14.9501 32.1354 15.1013 31.9841L16.8751 30.1966V24.6966L19.6251 21.9466V24.1329C19.6251 25.7966 20.7251 28.2579 23.7501 28.2579C26.7751 28.2579 27.8751 25.7966 27.8751 24.1329H37.5001V25.5079ZM37.8988 19.0316L35.5613 21.3829H25.1251V24.1329C25.1251 24.7516 24.8638 25.5079 23.7501 25.5079C22.6363 25.5079 22.3751 24.7516 22.3751 24.1329V20.0079C22.3751 19.3754 22.6088 17.2579 25.1251 17.2579H29.8138L32.9488 14.1229C33.3751 13.7241 33.6226 13.9579 33.7738 14.1091L37.8851 18.2066C38.2838 18.6329 38.0501 18.8804 37.8988 19.0316Z" fill="#148FE9"/>
</svg>
