<svg width="73" height="72" viewBox="0 0 73 72" fill="none" xmlns="http://www.w3.org/2000/svg">
<circle cx="36.5" cy="36" r="35.5" stroke="#148FE9"/>
<g clip-path="url(#clip0_1563_8127)">
<path d="M20.0944 24.0432C20.4782 24.2437 20.8297 24.5001 21.1869 24.7581C21.4016 24.9088 21.6163 25.0594 21.8311 25.2099C21.9429 25.2889 22.0546 25.3679 22.1698 25.4493C22.7628 25.8664 23.365 26.2652 23.9657 26.6669C24.1864 26.8147 24.407 26.9627 24.6276 27.1109C24.7207 27.1732 24.8137 27.2356 24.9096 27.2998C25.0932 27.426 25.2725 27.5607 25.4498 27.6986C26.0537 27.656 26.6085 27.4824 27.1873 27.2855C27.3667 27.2263 27.5461 27.1675 27.7256 27.1088C27.8644 27.0635 27.8644 27.0635 28.0061 27.0172C30.7945 26.1154 32.8766 25.8788 35.4821 27.5664C35.5474 27.6087 35.6126 27.651 35.6799 27.6945C35.8575 27.8165 35.8575 27.8165 36.1223 28.0409C36.3634 28.2037 36.3634 28.2037 36.6488 28.1067C37.0291 27.9021 37.3857 27.6674 37.7457 27.4186C40.2744 25.7143 42.7683 26.2999 45.5055 26.8932C46.1693 27.0365 46.8346 27.1695 47.5007 27.2978C47.7 27.3365 47.8991 27.3769 48.0981 27.4173C48.219 27.4407 48.3399 27.464 48.4644 27.4881C48.622 27.5193 48.622 27.5193 48.7827 27.5512C49.414 27.611 49.8691 27.4624 50.4115 27.0925C50.5827 26.977 50.5827 26.977 50.7572 26.8592C50.8167 26.8181 50.8762 26.7771 50.9375 26.7349C51.124 26.6063 51.3113 26.4794 51.4988 26.3529C52.099 25.9469 52.6945 25.5327 53.2862 25.11C53.3861 25.0392 53.486 24.9684 53.5889 24.8955C53.7751 24.7629 53.9605 24.6287 54.1449 24.4927C54.6263 24.1496 54.9794 23.915 55.5613 24.0432C55.9737 24.3803 56.1758 24.9202 56.4075 25.4287C56.8099 26.2924 57.2255 27.1454 57.6517 27.9934C58.1513 28.9889 58.6485 29.986 59.1421 30.9855C59.205 31.1129 59.2678 31.2402 59.3326 31.3713C59.4601 31.6296 59.5877 31.8879 59.7152 32.1462C59.9683 32.6589 60.2217 33.1715 60.4752 33.684C60.6004 33.9373 60.7254 34.1908 60.8502 34.4444C61.1448 35.0426 61.4413 35.6392 61.745 36.2313C61.888 36.5104 62.0298 36.7902 62.1716 37.0701C62.2719 37.2669 62.3738 37.4626 62.4758 37.6582C63.0563 38.8069 63.0563 38.8069 62.9376 39.4903C62.7089 39.8175 62.4274 40.0004 62.1154 40.2075C62.0102 40.2777 61.905 40.348 61.7966 40.4204C61.6268 40.5327 61.6268 40.5327 61.4535 40.6473C61.2763 40.7654 61.0992 40.8837 60.9221 41.002C60.8005 41.0832 60.6788 41.1644 60.5571 41.2455C59.9232 41.668 59.2925 42.0969 58.6621 42.5266C58.5105 42.6299 58.5105 42.6299 58.3558 42.7352C57.8334 43.0896 57.8334 43.0896 57.3185 43.4581C57.008 43.6629 56.8221 43.6784 56.4707 43.6174C56.0724 43.2372 55.8411 42.7438 55.5866 42.2318C55.545 42.1496 55.5035 42.0674 55.4606 41.9827C55.3589 41.7811 55.2579 41.5791 55.1571 41.3769C54.5277 41.8535 53.924 42.3575 53.332 42.8951C53.2561 42.9628 53.1802 43.0304 53.1021 43.1001C52.6345 43.5236 52.2131 43.9711 51.8063 44.473C51.1621 45.186 50.4457 45.1988 49.5937 45.1784C49.2965 45.1503 49.2965 45.1503 49.0944 45.0324C49.1027 45.1491 49.1111 45.2658 49.1197 45.3861C49.1151 46.0515 48.8877 46.5557 48.5012 47.036C47.9384 47.6343 47.5143 47.897 46.7388 47.8771C46.6308 47.875 46.5228 47.8728 46.4116 47.8707C46.3299 47.8679 46.2482 47.8652 46.1641 47.8624C46.1626 47.928 46.1612 47.9937 46.1597 48.0613C46.1102 48.9855 45.8299 49.5494 45.2736 50.1986C44.5875 50.7481 43.9627 50.9087 43.1327 50.8103C42.7664 50.6924 42.7664 50.6924 42.5264 50.5744C42.5043 50.6585 42.4822 50.7426 42.4593 50.8292C42.1911 51.7746 41.8942 52.4793 41.1308 52.977C40.3975 53.3544 39.6381 53.3834 38.8888 53.0507C38.4729 52.7963 38.0729 52.5182 37.6763 52.2253C37.6567 52.3054 37.6372 52.3855 37.6171 52.468C37.4182 52.9508 37.1288 53.2738 36.8048 53.6476C36.7151 53.7558 36.7151 53.7558 36.6236 53.8662C36.1295 54.4422 35.6343 54.8613 34.9354 55C34.1954 54.9906 33.6266 54.8981 33.0724 54.2934C32.8356 53.9841 32.6652 53.7036 32.624 53.2865C32.5404 53.3148 32.5404 53.3148 32.4551 53.3436C31.821 53.5075 31.0954 53.5016 30.4942 53.1972C29.9744 52.8052 29.558 52.2653 29.3906 51.5694C29.3906 51.4745 29.3906 51.3797 29.3906 51.2819C29.3335 51.3006 29.2765 51.3193 29.2177 51.3386C28.4129 51.5517 27.6798 51.3989 26.9655 50.9282C26.3121 50.3917 26.0562 49.6896 25.854 48.8057C25.854 48.7279 25.854 48.65 25.854 48.5699C25.7403 48.5801 25.7403 48.5801 25.6242 48.5906C24.6852 48.6389 24.0584 48.4032 23.3405 47.6929C23.2696 47.5931 23.1988 47.4934 23.1257 47.3907C23.0528 47.291 22.9799 47.1913 22.9047 47.0885C22.6217 46.4621 22.466 45.6745 22.5593 44.9656C22.5414 44.6335 22.5414 44.6335 22.2128 44.3921C22.078 44.2943 21.9423 44.1982 21.8058 44.1038C20.9121 43.4472 20.3017 42.7371 19.6902 41.7307C19.3405 42.2016 19.0816 42.7118 18.8179 43.2507C18.6798 43.4994 18.6798 43.4994 18.4777 43.6174C18.0034 43.6639 17.7358 43.5755 17.3298 43.2926C17.2266 43.2218 17.1234 43.151 17.0171 43.0781C16.9072 43.0007 16.7973 42.9233 16.6841 42.8435C16.5095 42.7232 16.335 42.6028 16.1603 42.4826C15.9782 42.357 15.7963 42.2307 15.6145 42.1044C15.0127 41.6874 14.4049 41.2825 13.798 40.8758C13.5815 40.7303 13.3651 40.5848 13.1487 40.4391C13.058 40.3782 12.9673 40.3172 12.8739 40.2543C12.7891 40.1968 12.7044 40.1392 12.617 40.0799C12.5248 40.019 12.4325 39.958 12.3375 39.8953C12.1118 39.7261 12.1118 39.7261 12.0108 39.4903C11.97 38.867 12.0396 38.5051 12.3111 37.9698C12.3763 37.8393 12.4414 37.7087 12.5085 37.5743C12.5805 37.4342 12.6524 37.2941 12.7244 37.1541C12.7983 37.0072 12.8721 36.8602 12.9458 36.7131C13.0976 36.4105 13.2501 36.1084 13.4032 35.8067C13.6767 35.2672 13.9441 34.7237 14.2114 34.1801C14.8081 32.9669 15.4122 31.7589 16.0174 30.5515C16.4449 29.6971 16.8667 28.839 17.2866 27.9795C18.3167 25.8711 18.3167 25.8711 18.7682 24.9644C18.8084 24.8825 18.8487 24.8006 18.8902 24.7162C19.2045 24.0892 19.4682 23.9053 20.0944 24.0432ZM19.8923 25.812C19.8358 25.9323 19.7792 26.0527 19.721 26.1768C19.1701 27.3446 18.6027 28.5001 18.0254 29.6505C17.3937 30.9096 16.7693 32.1737 16.1453 33.4381C15.9474 33.8386 15.7492 34.2389 15.5509 34.6391C14.869 36.0158 14.1899 37.3939 13.5264 38.7828C13.8371 39.0672 14.1597 39.3001 14.5022 39.529C14.6139 39.6039 14.7257 39.6788 14.8408 39.7561C14.9584 39.8345 15.0761 39.913 15.1937 39.9914C15.4221 40.1443 15.6505 40.2972 15.8789 40.4502C15.9913 40.5248 16.1037 40.5993 16.2195 40.6761C16.4484 40.8312 16.6749 40.9909 16.8992 41.1547C17.0064 41.2323 17.1136 41.3099 17.2241 41.3898C17.3196 41.4609 17.4151 41.532 17.5136 41.6053C17.7594 41.7598 17.7594 41.7598 17.987 41.6714C18.2284 41.4441 18.3404 41.2161 18.4879 40.8975C18.5452 40.7756 18.6025 40.6537 18.6616 40.5281C18.7218 40.3972 18.7819 40.2663 18.844 40.1315C18.9716 39.8596 19.0993 39.5878 19.2272 39.3162C19.2894 39.1834 19.3516 39.0507 19.4156 38.9139C19.6327 38.4549 19.858 38.0024 20.0881 37.552C20.5061 36.7302 20.917 35.9038 21.3259 35.0758C21.4217 34.8817 21.4217 34.8817 21.5195 34.6838C21.651 34.4172 21.7826 34.1507 21.9141 33.8841C22.185 33.3353 22.4561 32.7866 22.7272 32.2379C22.8538 31.9818 22.9804 31.7256 23.1069 31.4695C23.1944 31.2924 23.1944 31.2924 23.2836 31.1118C23.3682 30.9397 23.3682 30.9397 23.4545 30.7641C23.5793 30.5143 23.7066 30.2662 23.8358 30.0195C23.9016 29.893 23.9674 29.7664 24.0352 29.636C24.0956 29.5216 24.156 29.4073 24.2183 29.2895C24.3759 28.9911 24.3759 28.9911 24.2372 28.642C23.9851 28.4586 23.7356 28.2943 23.4731 28.1334C23.3087 28.0301 23.1446 27.9265 22.9805 27.8225C22.8911 27.7659 22.8018 27.7093 22.7097 27.651C22.0565 27.229 21.4155 26.7819 20.7725 26.3392C20.6226 26.2365 20.6226 26.2365 20.4698 26.1316C20.3803 26.07 20.2908 26.0083 20.1986 25.9448C20.0177 25.8024 20.0177 25.8024 19.8923 25.812ZM54.3795 26.1874C54.2916 26.2459 54.2916 26.2459 54.2018 26.3057C54.0107 26.4332 53.8197 26.5611 53.6288 26.689C53.5324 26.7534 53.5324 26.7534 53.434 26.8191C52.4858 27.4527 51.542 28.094 50.6101 28.7599C50.7525 29.3333 50.9709 29.8158 51.2353 30.3223C51.327 30.5011 51.4186 30.6799 51.51 30.8589C51.56 30.9566 51.61 31.0542 51.6616 31.1549C51.962 31.7463 52.255 32.3427 52.5489 32.9385C52.6133 33.0689 52.6776 33.1993 52.7439 33.3336C52.8762 33.6016 53.0085 33.8695 53.1407 34.1375C53.5212 34.9083 53.9022 35.6789 54.2835 36.4493C54.5769 37.0423 54.8699 37.6355 55.1614 38.2298C55.2641 38.439 55.3669 38.6481 55.4697 38.8572C55.5983 39.1186 55.7266 39.3802 55.8546 39.6421C56.2065 40.3571 56.5746 41.0518 56.9759 41.7307C57.2799 41.5936 57.5693 41.4491 57.8538 41.2636C57.9234 41.2184 57.993 41.1732 58.0648 41.1265C58.1389 41.0779 58.2131 41.0292 58.2895 40.979C58.3672 40.9283 58.4449 40.8776 58.5249 40.8254C59.4943 40.1915 60.4583 39.5464 61.4219 38.9007C60.8535 37.4842 60.1724 36.1493 59.4925 34.8028C59.1748 34.1711 58.8616 33.5364 58.5484 32.9017C58.4858 32.7749 58.4232 32.648 58.3587 32.5173C58.2313 32.2595 58.104 32.0016 57.9767 31.7437C57.7828 31.351 57.5886 30.9584 57.3943 30.5659C56.6113 28.9837 55.8314 27.3994 55.0561 25.812C54.8293 25.812 54.5656 26.0633 54.3795 26.1874ZM28.3548 28.5093C28.1493 28.5757 27.9436 28.6419 27.7379 28.7078C27.0547 28.9281 27.0547 28.9281 26.3739 29.158C26.1887 29.2208 26.0018 29.2764 25.8146 29.3304C25.4634 29.5128 25.374 29.7137 25.1913 30.1049C25.1281 30.2373 25.0649 30.3697 24.9998 30.5061C24.933 30.6512 24.8661 30.7962 24.7993 30.9413C24.7284 31.0913 24.6573 31.2411 24.586 31.3908C24.4393 31.6991 24.2935 32.0079 24.1481 32.3171C23.831 32.9896 23.5003 33.6529 23.17 34.3167C23.0458 34.5672 22.9218 34.8178 22.7977 35.0684C22.736 35.1931 22.6743 35.3177 22.6107 35.4461C22.4431 35.7849 22.2759 36.1239 22.1088 36.463C22.0053 36.6733 21.9016 36.8835 21.798 37.0937C21.6682 37.3569 21.5385 37.6203 21.4089 37.8837C21.35 38.0032 21.2911 38.1226 21.2304 38.2457C21.175 38.3582 21.1196 38.4707 21.0625 38.5867C20.8785 38.9483 20.6808 39.2968 20.4738 39.6408C20.3722 39.9116 20.4109 40.0432 20.4986 40.3157C21.1904 41.5081 22.0706 42.5214 23.1257 43.2636C23.5326 42.8751 23.9095 42.4693 24.2757 42.0299C25.0542 41.0966 25.7039 40.423 26.8771 40.3968C27.641 40.3968 28.2028 40.5129 28.7835 41.1135C29.3663 41.8303 29.5656 42.5398 29.6937 43.4994C29.8109 43.5147 29.8109 43.5147 29.9305 43.5303C30.8166 43.6698 31.3668 43.9189 31.9988 44.6565C32.3281 45.2164 32.4891 45.7916 32.624 46.4474C32.7412 46.4626 32.7412 46.4626 32.8608 46.4782C33.5329 46.584 34.1564 46.6845 34.6449 47.2728C34.7449 47.4957 34.8394 47.722 34.9291 47.9508C35.0625 48.2961 35.0625 48.2961 35.2512 48.5699C35.5409 48.6756 35.7821 48.6805 36.0848 48.6786C36.5801 48.695 36.9626 48.9392 37.3258 49.323C37.5456 49.6071 37.6699 49.8338 37.7418 50.2083C37.938 50.7344 38.2372 50.8841 38.6615 51.1419C38.7326 51.1884 38.8037 51.2348 38.877 51.2826C39.2811 51.5382 39.6347 51.7195 40.1014 51.7536C40.5691 51.5571 40.858 51.3116 41.1118 50.8103C41.1578 50.3809 41.1444 50.0887 41.0171 49.6827C40.3822 48.8072 39.3445 48.3079 38.4973 47.7518C37.8036 47.2962 37.1108 46.8389 36.4302 46.3571C36.3408 46.2943 36.2515 46.2315 36.1595 46.1667C35.9585 45.9757 35.9585 45.9757 35.8764 45.5261C35.9585 45.1503 35.9585 45.1503 36.1606 44.9144C36.733 44.8173 37.0876 45.0733 37.5626 45.4009C37.6407 45.4531 37.7189 45.5053 37.7993 45.5592C38.0623 45.7356 38.324 45.9145 38.5857 46.0936C38.7779 46.2243 38.9701 46.355 39.1624 46.4856C39.2612 46.5529 39.3601 46.6202 39.462 46.6896C39.6659 46.8283 39.8698 46.967 40.0739 47.1054C40.6018 47.4641 41.1275 47.8262 41.6502 48.1949C41.8559 48.3372 42.0617 48.4793 42.2675 48.6215C42.3613 48.6891 42.4551 48.7568 42.5518 48.8266C43.0793 49.1866 43.4421 49.3523 44.0532 49.2385C44.4155 49.0885 44.5592 48.8266 44.7494 48.4519C44.8594 47.9948 44.8946 47.7495 44.7368 47.3096C44.3978 46.8216 43.9744 46.5033 43.5105 46.1945C43.4069 46.1252 43.3034 46.0559 43.1967 45.9845C43.086 45.9111 42.9753 45.8376 42.8612 45.762C42.6859 45.645 42.5106 45.528 42.3353 45.411C42.2141 45.33 42.0929 45.2492 41.9716 45.1684C41.5383 44.8796 41.1065 44.5882 40.6753 44.2954C40.5556 44.2143 40.436 44.1332 40.3164 44.0521C40.0885 43.8976 39.8608 43.7428 39.6332 43.5877C39.5296 43.5177 39.4261 43.4477 39.3194 43.3755C39.2287 43.3139 39.1381 43.2523 39.0446 43.1889C38.7956 43.0327 38.5469 42.9079 38.2825 42.7919C38.2744 42.6201 38.2685 42.4481 38.2636 42.2761C38.2601 42.1803 38.2566 42.0845 38.2529 41.9859C38.2627 41.9017 38.2725 41.8175 38.2825 41.7307C38.5857 41.4949 38.5857 41.4949 38.8422 41.4972C39.3547 41.6666 39.7822 41.971 40.2403 42.2834C40.3422 42.3518 40.444 42.4201 40.549 42.4905C40.8719 42.7076 41.1941 42.9264 41.516 43.1457C41.6176 43.2148 41.7193 43.2839 41.824 43.3551C42.0253 43.4921 42.2266 43.6291 42.4278 43.7662C42.6284 43.9029 42.829 44.0394 43.0297 44.1758C43.5485 44.5284 44.0661 44.8832 44.5821 45.2415C44.7894 45.3831 44.9968 45.5247 45.2042 45.6662C45.2988 45.7329 45.3935 45.7996 45.4911 45.8684C46.0496 46.2458 46.4258 46.4356 47.0735 46.3294C47.3864 46.1479 47.623 45.8724 47.7808 45.504C47.818 44.8428 47.8078 44.5273 47.4777 43.9711C47.2631 43.7725 47.2631 43.7725 47.0099 43.6146C46.915 43.5511 46.8201 43.4876 46.7223 43.4222C46.5679 43.3218 46.5679 43.3218 46.4104 43.2194C46.3032 43.1481 46.1961 43.0769 46.0857 43.0035C45.8579 42.852 45.6299 42.7012 45.4017 42.5509C44.8347 42.1764 44.2713 41.7946 43.7074 41.4138C43.489 41.2668 43.2706 41.1199 43.0522 40.973C42.9474 40.9025 42.8426 40.832 42.7347 40.7594C42.5314 40.6228 42.3281 40.4862 42.1248 40.3496C41.8523 40.1665 41.58 39.9832 41.3076 39.7998C41.227 39.7457 41.1464 39.6917 41.0633 39.636C40.517 39.2679 40.517 39.2679 40.4045 39.1365C40.3856 38.7312 40.3856 38.7312 40.4045 38.3111C40.6066 38.0753 40.6066 38.0753 40.8851 38.039C41.2632 38.0809 41.4794 38.202 41.8085 38.4207C41.9208 38.4945 42.0331 38.5682 42.1487 38.6441C42.2683 38.7247 42.3879 38.8053 42.5075 38.886C42.6316 38.9682 42.7557 39.0504 42.8799 39.1324C43.6588 39.6484 44.4329 40.1742 45.2026 40.7086C45.9085 41.1976 46.6214 41.6727 47.3328 42.1505C47.4386 42.2216 47.5444 42.2927 47.6533 42.3659C47.7576 42.4357 47.8619 42.5054 47.9693 42.5773C48.1869 42.7247 48.4032 42.8747 48.6184 43.0269C48.7249 43.1018 48.8315 43.1767 48.9413 43.2539C49.0364 43.3219 49.1316 43.3899 49.2297 43.4599C49.6294 43.6939 49.9742 43.7309 50.408 43.6174C50.8843 43.3827 51.1882 42.9755 51.4184 42.4382C51.4561 41.9106 51.4634 41.6089 51.2732 41.1264C50.659 40.3222 49.7609 39.8382 48.9657 39.3145C48.6526 39.1083 48.3401 38.9008 48.0275 38.6934C47.9642 38.6515 47.9009 38.6095 47.8357 38.5663C47.2208 38.158 46.6101 37.7413 45.9999 37.3236C45.2771 36.8298 44.5524 36.3408 43.8211 35.8643C43.7479 35.8164 43.6747 35.7685 43.5992 35.7191C43.4974 35.6533 43.4974 35.6533 43.3936 35.5861C43.3355 35.5485 43.2774 35.5108 43.2175 35.472C42.2191 34.8874 41.2576 34.9503 40.2087 35.3042C40.099 35.339 39.9892 35.3737 39.8762 35.4095C39.1195 35.6517 38.3666 35.9088 37.6132 36.1642C37.1344 36.3263 36.6553 36.4872 36.1762 36.6481C35.818 36.7692 35.4605 36.8927 35.103 37.0163C34.8768 37.0929 34.6505 37.1694 34.4243 37.2457C34.322 37.2818 34.2198 37.3179 34.1145 37.355C33.1156 37.6877 32.2036 37.7632 31.235 37.2812C30.6554 36.9014 30.3614 36.4563 30.041 35.798C30.0033 35.7227 29.9656 35.6474 29.9268 35.5698C29.8515 35.4191 29.7769 35.268 29.7028 35.1165C29.6286 34.9649 29.5535 34.814 29.4776 34.6636C29.3165 34.3428 29.1885 34.0664 29.1064 33.705C29.3033 32.8743 30.4718 32.3912 31.0765 31.9897C31.1965 31.9105 31.3166 31.8312 31.4367 31.752C31.5613 31.6694 31.6859 31.5868 31.8104 31.5042C32.0614 31.3377 32.3125 31.1714 32.5636 31.0052C33.0982 30.6514 33.6315 30.2952 34.1649 29.939C34.3381 29.8236 34.5112 29.7081 34.6844 29.5927C34.7907 29.5218 34.7907 29.5218 34.8992 29.4494C34.9487 29.4164 34.9981 29.3834 35.0491 29.3495C35.0491 29.2716 35.0491 29.1938 35.0491 29.1136C32.9005 27.2795 30.7356 27.7136 28.3548 28.5093ZM37.7457 29.1578C37.6218 29.2424 37.4978 29.3269 37.3737 29.4112C37.0611 29.624 36.7493 29.8386 36.4377 30.0536C36.0732 30.3047 35.7071 30.5528 35.3414 30.8015C35.1471 30.9336 34.9529 31.066 34.7588 31.1986C33.8156 31.8427 32.8665 32.4746 31.9165 33.1048C31.8023 33.1807 31.6882 33.2565 31.5705 33.3347C31.469 33.402 31.3675 33.4693 31.2629 33.5386C31.0729 33.6678 30.8872 33.8058 30.7041 33.9482C30.8747 34.7883 31.3118 35.5801 31.9104 36.0854C32.553 36.2997 33.1209 36.1914 33.7516 35.9759C33.8189 35.9533 33.8863 35.9306 33.9556 35.9073C34.1758 35.833 34.3955 35.757 34.6153 35.681C34.77 35.6286 34.9248 35.5763 35.0796 35.5241C35.4859 35.3868 35.8919 35.2482 36.2978 35.1091C36.946 34.8872 37.5947 34.6668 38.2437 34.4474C38.4685 34.3711 38.6931 34.2939 38.9178 34.2166C40.9929 33.5081 42.562 33.3838 44.5272 34.5942C44.8099 34.7825 45.0895 34.9758 45.3684 35.1716C45.5812 35.3188 45.7941 35.4659 46.007 35.6129C46.1159 35.6884 46.2248 35.7639 46.3371 35.8417C46.8831 36.2181 47.4331 36.5862 47.9829 36.9551C48.2013 37.1025 48.4197 37.2499 48.6381 37.3973C49.084 37.6977 49.5314 37.9944 49.9801 38.289C50.1985 38.4339 50.4169 38.5789 50.6353 38.7238C50.786 38.8213 50.786 38.8213 50.9397 38.9207C51.6847 39.4182 52.2422 39.9478 52.5678 40.8979C52.5999 40.989 52.6319 41.08 52.6649 41.1738C52.6981 41.2744 52.6981 41.2744 52.732 41.3769C53.3357 40.942 53.9195 40.5139 54.4498 39.962C54.2858 39.2378 53.9549 38.6387 53.6288 38.0016C53.5 37.7471 53.3713 37.4925 53.2428 37.2379C53.1755 37.1049 53.1083 36.9718 53.039 36.8347C52.6951 36.1516 52.3604 35.4623 52.0247 34.7736C51.4452 33.5861 50.8596 32.403 50.2669 31.2244C50.213 31.1171 50.1592 31.0099 50.1037 30.8994C50.0509 30.7976 49.9982 30.6959 49.9438 30.591C49.8017 30.2928 49.8017 30.2928 49.7054 29.9911C49.5964 29.6723 49.5069 29.4733 49.2965 29.2315C48.7829 29.0065 48.2584 28.9346 47.7177 28.8557C47.56 28.8293 47.4024 28.8024 47.2448 28.775C46.9995 28.7326 46.7541 28.6907 46.5085 28.6507C45.9373 28.5575 45.3705 28.4469 44.8035 28.3237C42.1396 27.747 40.1817 27.4642 37.7457 29.1578ZM24.9761 43.2931C24.8995 43.3787 24.8228 43.4642 24.7439 43.5524C24.2759 44.0932 23.9972 44.5186 23.8331 45.2682C23.865 45.8107 23.9763 46.1284 24.2751 46.5505C24.7099 46.9613 24.9609 47.0617 25.5311 47.0913C26.2531 46.9144 26.7971 46.0934 27.2939 45.5114C27.3762 45.4172 27.4585 45.3231 27.5433 45.2261C27.6613 45.0885 27.6613 45.0885 27.7817 44.9481C27.853 44.8652 27.9243 44.7824 27.9977 44.6971C28.2769 44.3032 28.37 43.9595 28.418 43.4552C28.3617 42.8198 28.1733 42.4124 27.7612 41.9739C26.5117 41.435 25.8101 42.3274 24.9761 43.2931ZM28.2538 46.4326C28.1715 46.5273 28.0892 46.622 28.0043 46.7196C27.9257 46.8118 27.847 46.9041 27.7659 46.9992C27.659 47.1245 27.659 47.1245 27.5499 47.2525C27.2653 47.6569 27.1676 47.9741 27.1676 48.4962C27.2979 49.0476 27.4793 49.405 27.8749 49.749C28.1884 49.8851 28.4543 49.9329 28.7843 49.8669C29.3862 49.5369 29.8117 49.0756 30.2747 48.5256C30.3745 48.4112 30.3745 48.4112 30.4764 48.2944C30.89 47.8089 31.2716 47.3503 31.3357 46.6385C31.2878 46.1505 31.243 45.9076 30.9757 45.5114C29.8521 44.5051 29.1005 45.4303 28.2538 46.4326ZM30.9062 49.749C30.6425 50.2103 30.5246 50.4851 30.6031 51.0461C30.7885 51.3906 30.9937 51.6867 31.3104 51.8715C31.8549 51.9437 32.0902 51.7736 32.523 51.3999C32.7424 51.1714 32.949 50.9305 33.1545 50.685C33.2346 50.5914 33.2346 50.5914 33.3163 50.4959C33.8042 49.9301 33.8042 49.9301 33.9755 49.1742C33.9662 48.686 33.8371 48.4421 33.5334 48.0982C32.4867 47.4874 31.5251 48.9299 30.9062 49.749ZM34.607 51.0093C34.5339 51.0943 34.4609 51.1794 34.3856 51.267C33.9059 51.829 33.9059 51.829 33.7355 52.579C33.8755 52.9136 34.0154 53.1415 34.2407 53.4044C34.5952 53.4789 34.8377 53.489 35.1458 53.2529C35.3587 53.0378 35.5573 52.8114 35.7564 52.579C35.8314 52.5012 35.9065 52.4234 35.9838 52.3432C36.3263 51.9777 36.5375 51.7235 36.6974 51.2082C36.654 50.6618 36.5158 50.4568 36.1606 50.1028C35.4091 49.9252 35.0855 50.4185 34.607 51.0093Z" stroke="#148FE9" stroke-width="1.8"/>
<path d="M46.4036 56.2084L46.4036 56.2084L46.4053 56.2118L46.5069 56.4196C46.507 56.4197 46.507 56.4198 46.5071 56.42C46.6042 56.6195 46.6993 56.821 46.7958 57.0257L46.8006 57.036L46.806 57.0461L46.9695 57.3555C46.9696 57.3558 46.9697 57.356 46.9699 57.3562C47.208 57.8104 47.3175 58.0497 47.2725 58.4198C47.267 58.4306 47.2625 58.4394 47.2585 58.4469C47.16 58.4628 47.1295 58.4658 47.1005 58.4658C47.0797 58.4658 47.0574 58.4642 47.012 58.458C46.7492 58.1024 46.5432 57.6841 46.3137 57.2184C46.2903 57.1708 46.2666 57.1228 46.2426 57.0743L46.2427 57.0742L46.2379 57.0649L46.0966 56.7938C45.9859 56.569 45.9215 56.4252 45.8806 56.2833C45.8457 56.1621 45.8241 56.0279 45.8208 55.8342C45.8438 55.7596 45.8626 55.7138 45.8772 55.6858C45.8777 55.6847 45.8782 55.6837 45.8787 55.6828C45.9035 55.6783 45.9403 55.6746 45.997 55.6729C46.0461 55.689 46.0786 55.7002 46.1045 55.7103C46.1155 55.7146 46.1227 55.7177 46.127 55.7197C46.1304 55.7233 46.1359 55.7293 46.1439 55.7388C46.1657 55.7647 46.1921 55.7993 46.235 55.8567L46.4036 56.2084Z" stroke="#148FE9"/>
<path d="M28.5843 57.3819L28.5843 57.3819C28.5929 57.3656 28.6013 57.3494 28.6098 57.3334C28.9211 56.7398 29.1409 56.3208 29.1761 55.7709C29.1642 55.751 29.1543 55.7351 29.1454 55.7216C29.1235 55.7145 29.0937 55.706 29.0471 55.6931C28.9625 55.6883 28.9171 55.6868 28.8891 55.6875C28.8677 55.7144 28.83 55.7688 28.7697 55.8759C28.6894 56.0185 28.5909 56.2135 28.4495 56.494L28.2819 56.8325L28.2785 56.8392L28.2785 56.8392L28.108 57.171L27.947 57.4945L27.9463 57.4958L27.9463 57.4958C27.8692 57.6495 27.8401 57.708 27.8155 57.7655C27.7949 57.8137 27.7768 57.8628 27.7383 57.9711C27.7232 58.2216 27.7186 58.3408 27.7539 58.4582C27.7569 58.4599 27.7596 58.4614 27.7622 58.4628L28.5843 57.3819ZM28.5843 57.3819L28.5815 57.3874M28.5843 57.3819L28.5815 57.3874M28.5815 57.3874L28.427 57.6912M28.5815 57.3874L28.427 57.6912M28.427 57.6912C28.2341 58.0668 28.1507 58.2285 28.0861 58.3344C28.0596 58.378 28.0378 58.4098 28.0075 58.4483L28.427 57.6912Z" stroke="#148FE9"/>
<path d="M47.0522 20.5049L47.0522 20.5049L47.0515 20.5063L46.8905 20.8298L46.7199 21.1616L46.7199 21.1616L46.7166 21.1683L46.549 21.5068C46.3313 21.9384 46.2469 22.1028 46.1773 22.2024C46.1488 22.2433 46.1276 22.2682 46.0726 22.3143C46.0174 22.3101 45.9845 22.3065 45.9526 22.3012C45.9259 22.2968 45.8989 22.2911 45.8594 22.2813C45.836 22.2302 45.8285 22.2018 45.8246 22.1797C45.8174 22.1376 45.816 22.0743 45.8449 21.8822C45.9501 21.4992 46.1304 21.1573 46.341 20.7578C46.365 20.7123 46.3894 20.666 46.4141 20.6189L46.4142 20.6189L46.417 20.6134L46.5715 20.3096C46.7008 20.0576 46.7916 19.8809 46.8649 19.7503C46.9295 19.6351 46.967 19.5807 46.988 19.5549C47.0051 19.5519 47.0345 19.5479 47.0899 19.5418C47.1545 19.5484 47.1991 19.5532 47.2345 19.5579C47.24 19.5586 47.245 19.5593 47.2495 19.56C47.2794 19.6721 47.2745 19.7915 47.2602 20.0297C47.2217 20.1379 47.2035 20.1871 47.1829 20.2352C47.1583 20.2928 47.1292 20.3513 47.0522 20.5049Z" stroke="#148FE9"/>
<path d="M28.5917 21.7935L28.4901 21.5856C28.49 21.5855 28.49 21.5854 28.4899 21.5853C28.3928 21.3858 28.2977 21.1843 28.2012 20.9796L28.1963 20.9693L28.191 20.9592L28.0271 20.649C27.7913 20.1994 27.6817 19.9604 27.7232 19.5965C27.7402 19.5711 27.7523 19.5598 27.7571 19.5559C27.762 19.5518 27.7666 19.5484 27.7826 19.5449C27.804 19.5402 27.8433 19.5364 27.9138 19.5415C27.9367 19.5432 27.9606 19.5456 27.986 19.5487C28.2483 19.904 28.4541 20.3217 28.6833 20.7869C28.7067 20.8345 28.7303 20.8825 28.7543 20.931L28.7542 20.9311L28.7591 20.9404L28.9003 21.2115C29.0111 21.4362 29.0755 21.58 29.1164 21.722C29.1515 21.8438 29.1731 21.9786 29.1763 22.1738C29.1611 22.2276 29.1511 22.2613 29.142 22.2875C29.1399 22.2935 29.1382 22.2981 29.1369 22.3016C29.1335 22.3047 29.1288 22.3091 29.1223 22.3147C29.1159 22.3202 29.109 22.326 29.1014 22.3323C29.0496 22.3312 29.0264 22.3292 29.0036 22.3254C28.9747 22.3206 28.9432 22.3126 28.867 22.2889C28.8167 22.2202 28.7909 22.1825 28.7666 22.1417C28.7285 22.0778 28.6923 22.0032 28.5933 21.7969L28.5933 21.7969L28.5917 21.7935Z" stroke="#148FE9"/>
<path d="M37.6469 59.6035L37.6469 59.6045C37.6474 59.8561 37.6511 60.1069 37.6549 60.3545C37.6555 60.5111 37.6559 60.6677 37.6561 60.8243L37.6561 60.8266L37.6584 61.227C37.6483 61.3 37.6417 61.3459 37.6353 61.3812C37.6325 61.3967 37.6303 61.4065 37.6289 61.4122C37.628 61.4136 37.6268 61.4152 37.6255 61.4171C37.6197 61.4251 37.6128 61.4341 37.6039 61.4455C37.5705 61.4577 37.5532 61.4567 37.5418 61.4561L37.5411 61.4561C37.5107 61.4545 37.4748 61.4473 37.4084 61.428C37.3745 61.3554 37.3532 61.2611 37.3445 61.1288C37.3378 61.0269 37.3392 60.9154 37.3433 60.7838C37.3441 60.7587 37.345 60.7326 37.3459 60.7056C37.3495 60.5993 37.3535 60.4804 37.3528 60.3642L37.3529 60.1185L37.3529 60.1175C37.3524 59.8658 37.3487 59.615 37.3449 59.3675C37.3443 59.2109 37.3439 59.0543 37.3437 58.8977L37.3437 58.8954L37.3414 58.4949C37.3515 58.422 37.3581 58.3761 37.3645 58.3407C37.3673 58.3252 37.3695 58.3154 37.3709 58.3097C37.3718 58.3084 37.373 58.3068 37.3743 58.3049C37.3801 58.2968 37.387 58.2878 37.3959 58.2765C37.4293 58.2643 37.4466 58.2652 37.4581 58.2658C37.4583 58.2659 37.4585 58.2659 37.4587 58.2659C37.4892 58.2675 37.5251 58.2746 37.5914 58.294C37.6254 58.3665 37.6466 58.4609 37.6553 58.5932C37.662 58.6951 37.6606 58.8066 37.6565 58.9381C37.6557 58.9632 37.6549 58.9894 37.6539 59.0164C37.6503 59.1226 37.6463 59.2415 37.647 59.3578L37.6469 59.6035Z" stroke="#148FE9"/>
<path d="M37.6534 17.8859L37.6535 17.8872C37.6547 18.1393 37.6597 18.3903 37.6648 18.6375C37.6658 18.7938 37.6665 18.9501 37.667 19.1064L37.667 19.1096L37.6707 19.5012C37.6591 19.5692 37.6517 19.6103 37.6446 19.6416C37.6433 19.6473 37.6422 19.6518 37.6413 19.6555C37.6407 19.6561 37.6401 19.6568 37.6395 19.6575C37.6274 19.671 37.6119 19.6869 37.5884 19.7101C37.5779 19.7147 37.5691 19.7184 37.5615 19.7214C37.5365 19.716 37.5044 19.7079 37.4549 19.6948C37.4256 19.6794 37.4013 19.6666 37.3806 19.6555C37.3656 19.2766 37.3638 18.8952 37.362 18.5032C37.3618 18.4709 37.3617 18.4385 37.3615 18.406L37.3615 18.4049C37.3597 18.1529 37.3552 17.9016 37.3508 17.6531C37.3498 17.4959 37.3489 17.3387 37.3482 17.1815L37.3482 17.1785L37.3441 16.7756C37.3539 16.7021 37.3603 16.6559 37.3666 16.6203C37.3693 16.605 37.3714 16.5953 37.3728 16.5895C37.3736 16.5883 37.3746 16.5869 37.3757 16.5853C37.3814 16.5774 37.388 16.5686 37.3967 16.5576C37.4301 16.5455 37.4474 16.5465 37.459 16.5471L37.4596 16.5471C37.4898 16.5487 37.5254 16.5557 37.5906 16.5747C37.6322 16.665 37.6605 16.7946 37.6697 16.9836C37.6761 17.1141 37.6728 17.2541 37.667 17.409C37.666 17.4368 37.6648 17.4654 37.6636 17.4946C37.6586 17.6203 37.6532 17.7569 37.6534 17.8859ZM36.8615 18.4084C36.8598 18.1586 36.8553 17.909 36.8508 17.6592L36.8915 19.9C36.8663 19.4366 36.8641 18.9726 36.862 18.5084C36.8618 18.4751 36.8617 18.4418 36.8615 18.4084Z" stroke="#148FE9"/>
</g>
<defs>
<clipPath id="clip0_1563_8127">
<rect width="52" height="60" fill="white" transform="translate(11.5 9)"/>
</clipPath>
</defs>
</svg>
