<svg width="21" height="20" viewBox="0 0 21 20" fill="none" xmlns="http://www.w3.org/2000/svg">
<path fill-rule="evenodd" clip-rule="evenodd" d="M6.75001 4C6.75001 2.93913 7.14509 1.92172 7.84835 1.17157C8.55161 0.421427 9.50543 0 10.5 0C11.4945 0 12.4484 0.421427 13.1516 1.17157C13.8549 1.92172 14.25 2.93913 14.25 4C14.25 5.06086 13.8549 6.07828 13.1516 6.82842C12.4484 7.57857 11.4945 7.99999 10.5 7.99999C9.50543 7.99999 8.55161 7.57857 7.84835 6.82842C7.14509 6.07828 6.75001 5.06086 6.75001 4ZM14.25 7.19999C14.25 6.3513 14.566 5.53737 15.1286 4.93725C15.6912 4.33714 16.4543 4 17.2499 4C18.0456 4 18.8086 4.33714 19.3712 4.93725C19.9338 5.53737 20.2499 6.3513 20.2499 7.19999C20.2499 8.04869 19.9338 8.86262 19.3712 9.46273C18.8086 10.0628 18.0456 10.4 17.2499 10.4C16.4543 10.4 15.6912 10.0628 15.1286 9.46273C14.566 8.86262 14.25 8.04869 14.25 7.19999ZM0.750055 7.19999C0.750055 6.3513 1.06612 5.53737 1.62873 4.93725C2.19133 4.33714 2.95439 4 3.75003 4C4.54568 4 5.30873 4.33714 5.87134 4.93725C6.43394 5.53737 6.75001 6.3513 6.75001 7.19999C6.75001 8.04869 6.43394 8.86262 5.87134 9.46273C5.30873 10.0628 4.54568 10.4 3.75003 10.4C2.95439 10.4 2.19133 10.0628 1.62873 9.46273C1.06612 8.86262 0.750055 8.04869 0.750055 7.19999ZM4.81002 12.9248C5.41997 11.9051 6.26109 11.0659 7.25563 10.4847C8.25016 9.9036 9.366 9.59931 10.5 9.59999C11.4498 9.59907 12.3891 9.81213 13.2564 10.2252C14.1236 10.6383 14.8993 11.2422 15.5327 11.9972C16.166 12.7522 16.6427 13.6414 16.9316 14.6065C17.2205 15.5717 17.315 16.591 17.2089 17.5979C17.196 17.7229 17.1555 17.843 17.0909 17.9483C17.0263 18.0535 16.9392 18.1411 16.8369 18.2037C14.9085 19.384 12.7233 20.0034 10.5 20C8.27661 20.0037 6.09135 19.3843 4.16303 18.2037C4.06072 18.1411 3.97371 18.0535 3.90907 17.9483C3.84444 17.843 3.80399 17.7229 3.79103 17.5979C3.62309 15.9623 3.98249 14.3144 4.81002 12.9259V12.9248Z" fill="#1C274D"/>
<path d="M3.58205 12.0043C2.59582 13.6282 2.13632 15.5523 2.27406 17.4816C1.67357 17.3845 1.08298 17.2274 0.510077 17.0123L0.395078 16.9696C0.292474 16.9308 0.20263 16.861 0.136428 16.7688C0.0702264 16.6766 0.0305069 16.5659 0.0220806 16.4502L0.0120806 16.3211C-0.0283141 15.7856 0.0328364 15.2469 0.191883 14.7371C0.35093 14.2274 0.604614 13.757 0.937797 13.3542C1.27098 12.9513 1.67683 12.6241 2.13114 12.3922C2.58545 12.1603 3.0789 12.0283 3.58205 12.0043ZM18.7259 17.4816C18.8637 15.5523 18.4042 13.6282 17.4179 12.0043C17.9211 12.0283 18.4145 12.1603 18.8689 12.3922C19.3232 12.6241 19.729 12.9513 20.0622 13.3542C20.3954 13.757 20.6491 14.2274 20.8081 14.7371C20.9672 15.2469 21.0283 15.7856 20.9879 16.3211L20.9779 16.4502C20.9693 16.5657 20.9295 16.6762 20.8633 16.7682C20.7971 16.8602 20.7074 16.9298 20.6049 16.9685L20.4899 17.0112C19.9229 17.2245 19.3339 17.3835 18.7259 17.4816Z" fill="#1C274D"/>
</svg>
