<svg width="26" height="28" viewBox="0 0 26 28" fill="none" xmlns="http://www.w3.org/2000/svg">
<path fill-rule="evenodd" clip-rule="evenodd" d="M8.35715 5.6C8.35715 4.11478 8.84631 2.6904 9.71701 1.6402C10.5877 0.589998 11.7686 0 13 0C14.2313 0 15.4122 0.589998 16.2829 1.6402C17.1536 2.6904 17.6428 4.11478 17.6428 5.6C17.6428 7.08521 17.1536 8.50959 16.2829 9.55979C15.4122 10.61 14.2313 11.2 13 11.2C11.7686 11.2 10.5877 10.61 9.71701 9.55979C8.84631 8.50959 8.35715 7.08521 8.35715 5.6ZM17.6428 10.08C17.6428 8.89182 18.0341 7.75232 18.7307 6.91216C19.4272 6.07199 20.372 5.6 21.3571 5.6C22.3421 5.6 23.2869 6.07199 23.9834 6.91216C24.68 7.75232 25.0713 8.89182 25.0713 10.08C25.0713 11.2682 24.68 12.4077 23.9834 13.2478C23.2869 14.088 22.3421 14.56 21.3571 14.56C20.372 14.56 19.4272 14.088 18.7307 13.2478C18.0341 12.4077 17.6428 11.2682 17.6428 10.08ZM0.92864 10.08C0.92864 8.89182 1.31996 7.75232 2.01652 6.91216C2.71308 6.07199 3.65781 5.6 4.6429 5.6C5.62798 5.6 6.57272 6.07199 7.26927 6.91216C7.96583 7.75232 8.35715 8.89182 8.35715 10.08C8.35715 11.2682 7.96583 12.4077 7.26927 13.2478C6.57272 14.088 5.62798 14.56 4.6429 14.56C3.65781 14.56 2.71308 14.088 2.01652 13.2478C1.31996 12.4077 0.92864 11.2682 0.92864 10.08ZM5.95527 18.0947C6.71044 16.6671 7.75183 15.4922 8.98316 14.6786C10.2145 13.865 11.596 13.439 13 13.44C14.1759 13.4387 15.3389 13.737 16.4126 14.3153C17.4864 14.8937 18.4468 15.739 19.2309 16.7961C20.0151 17.8531 20.6053 19.098 20.9629 20.4492C21.3206 21.8004 21.4376 23.2275 21.3063 24.637C21.2902 24.8121 21.2402 24.9802 21.1601 25.1276C21.0801 25.2749 20.9724 25.3975 20.8457 25.4852C18.4582 27.1376 15.7527 28.0048 13 28C10.2472 28.0052 7.54167 27.138 5.15423 25.4852C5.02756 25.3975 4.91983 25.2749 4.83981 25.1276C4.75978 24.9802 4.70971 24.8121 4.69366 24.637C4.48573 22.3472 4.9307 20.0402 5.95527 18.0962V18.0947Z" fill="#1C274D"/>
<path d="M4.43492 16.806C3.21387 19.0794 2.64497 21.7733 2.81551 24.4743C2.07204 24.3383 1.34083 24.1183 0.631524 23.8172L0.489144 23.7575C0.36211 23.7031 0.250875 23.6054 0.168911 23.4764C0.086947 23.3473 0.0377704 23.1923 0.0273378 23.0302L0.014957 22.8495C-0.0350555 22.0998 0.0406546 21.3456 0.23757 20.632C0.434485 19.9183 0.748569 19.2599 1.16108 18.6958C1.57359 18.1318 2.07608 17.6738 2.63856 17.3491C3.20104 17.0244 3.81198 16.8397 4.43492 16.806ZM23.1845 24.4743C23.355 21.7733 22.7861 19.0794 21.5651 16.806C22.188 16.8397 22.799 17.0244 23.3614 17.3491C23.9239 17.6738 24.4264 18.1318 24.8389 18.6958C25.2514 19.2599 25.5655 19.9183 25.7624 20.632C25.9593 21.3456 26.0351 22.0998 25.985 22.8495L25.9727 23.0302C25.962 23.192 25.9127 23.3467 25.8308 23.4755C25.7488 23.6043 25.6377 23.7017 25.5109 23.756L25.3685 23.8157C24.6665 24.1144 23.9373 24.3369 23.1845 24.4743Z" fill="#1C274D"/>
</svg>

