<svg width="73" height="72" viewBox="0 0 73 72" fill="none" xmlns="http://www.w3.org/2000/svg">
<circle cx="36.5" cy="36" r="35.4" stroke="#148FE9" stroke-width="1.2"/>
<g clip-path="url(#clip0_1563_8106)">
<path d="M39.6544 36.5H35.5884C34.9652 36.5004 34.3616 36.7176 33.8812 37.1144C33.4008 37.5112 33.0732 38.0628 32.955 38.6746C32.8368 39.2864 32.9352 39.9204 33.2332 40.4676C33.5312 41.0148 34.0104 41.4414 34.5884 41.674L38.7164 43.326C39.2944 43.5586 39.7736 43.9852 40.0716 44.5324C40.3696 45.0796 40.468 45.7136 40.3498 46.3254C40.2316 46.9372 39.904 47.4888 39.4236 47.8856C38.9432 48.2824 38.3396 48.4996 37.7164 48.5H33.6544" stroke="#148FE9" stroke-width="3.25" stroke-linecap="round" stroke-linejoin="round"/>
<path d="M36.6406 36.5V35" stroke="#148FE9" stroke-width="3.25" stroke-linecap="round" stroke-linejoin="round"/>
<path d="M36.6406 50V48.5" stroke="#148FE9" stroke-width="3.25" stroke-linecap="round" stroke-linejoin="round"/>
<path d="M26.1406 27.5H47.1406" stroke="#148FE9" stroke-width="3.25" stroke-linecap="round" stroke-linejoin="round"/>
<path d="M43.7561 21.0718L46.6321 15.3198C46.7727 15.0383 46.8211 14.7197 46.7705 14.4092C46.7201 14.0986 46.5731 13.8118 46.3507 13.5893C46.1281 13.3668 45.8413 13.2199 45.5307 13.1694C45.2203 13.1189 44.9017 13.1673 44.6201 13.3078L40.8201 15.2038C40.4931 15.367 40.1179 15.4053 39.7647 15.3114C39.4115 15.2175 39.1047 14.9979 38.9021 14.6938L37.8961 13.1678C37.7591 12.9624 37.5735 12.794 37.3559 12.6775C37.1381 12.561 36.8951 12.5 36.6481 12.5C36.4011 12.5 36.1581 12.561 35.9403 12.6775C35.7227 12.794 35.5371 12.9624 35.4001 13.1678L34.3821 14.6938C34.1797 14.9982 33.8729 15.2181 33.5197 15.312C33.1663 15.406 32.7909 15.3675 32.4641 15.2038L28.6701 13.3078C28.3885 13.168 28.0701 13.12 27.7598 13.1707C27.4495 13.2214 27.1629 13.3682 26.9405 13.5905C26.718 13.8127 26.5709 14.0991 26.5199 14.4094C26.4689 14.7196 26.5165 15.0381 26.6561 15.3198L29.4761 20.9598" stroke="#148FE9" stroke-width="3.25" stroke-linecap="round" stroke-linejoin="round"/>
<path d="M26.9806 32L21.4606 38.4C20.1098 40.1558 19.2776 42.2548 19.0583 44.4594C18.839 46.6638 19.2412 48.8856 20.2195 50.8732C21.1978 52.8608 22.7131 54.5348 24.5937 55.7056C26.4744 56.8764 28.6453 57.4974 30.8606 57.498H42.4406C44.656 57.4974 46.8268 56.8764 48.7074 55.7056C50.5882 54.5348 52.1034 52.8608 53.0816 50.8732C54.06 48.8856 54.4622 46.6638 54.243 44.4594C54.0236 42.2548 53.1914 40.1558 51.8406 38.4L46.3206 32" stroke="#148FE9" stroke-width="3.25" stroke-linecap="round" stroke-linejoin="round"/>
</g>
<defs>
<clipPath id="clip0_1563_8106">
<rect width="48" height="48" fill="white" transform="translate(12.5 11)"/>
</clipPath>
</defs>
</svg>
