<svg width="27" height="25" viewBox="0 0 27 25" fill="none" xmlns="http://www.w3.org/2000/svg">
<rect width="27" height="25" fill="#475467"/>
<g id="Background Forwarders">
<rect width="544" height="957" transform="translate(-127 -54)" fill="white"/>
<g id="Container Forwarders">
<g id="Container Forwarders1">
<g id="Title Forwarders">
<g id="lucide-monitor-smartphone">
<path id="Vector" d="M10.125 17.909H10.325V17.709V15.6257V15.4257H10.125H4.5C3.64839 15.4257 2.85373 15.1204 2.25089 14.5622C1.65969 14.0148 1.325 13.2651 1.325 12.5007V5.20898C1.325 4.43399 1.64855 3.70513 2.25089 3.14741C2.85373 2.58922 3.64839 2.28398 4.5 2.28398H18C18.8516 2.28398 19.6463 2.58922 20.2491 3.14741C20.8514 3.70513 21.175 4.43399 21.175 5.20898V7.29232C21.175 7.74056 20.7731 8.13399 20.25 8.13399C19.7269 8.13399 19.325 7.74056 19.325 7.29232V5.20898C19.325 4.87849 19.1751 4.55762 18.9385 4.32635L18.9386 4.3263L18.9346 4.32263C18.681 4.08786 18.3501 3.96732 18 3.96732H4.5C4.15765 3.96732 3.81857 4.1004 3.56934 4.31903L3.56929 4.31897L3.56534 4.32263C3.31103 4.5581 3.175 4.87159 3.175 5.20898V12.5007C3.175 12.8311 3.32478 13.152 3.56143 13.3833L3.56138 13.3833L3.56534 13.387C3.8189 13.6218 4.14987 13.7423 4.5 13.7423H13.5C14.0231 13.7423 14.425 14.1357 14.425 14.584C14.425 15.0322 14.0231 15.4257 13.5 15.4257H12.375H12.175V15.6257V17.709V17.909H12.375H13.5C14.0231 17.909 14.425 18.3024 14.425 18.7507C14.425 19.1989 14.0231 19.5923 13.5 19.5923H7.875C7.35193 19.5923 6.95 19.1989 6.95 18.7507C6.95 18.3024 7.35193 17.909 7.875 17.909H10.125ZM20.25 22.7173C18.4894 22.7173 17.075 21.3864 17.075 19.7923V13.5423C17.075 11.9482 18.4894 10.6173 20.25 10.6173H22.5C24.2606 10.6173 25.675 11.9482 25.675 13.5423V19.7923C25.675 21.3864 24.2606 22.7173 22.5 22.7173H20.25ZM20.25 12.3007C19.5356 12.3007 18.925 12.8447 18.925 13.5423V19.7923C18.925 20.4899 19.5356 21.034 20.25 21.034H22.5C23.2144 21.034 23.825 20.4899 23.825 19.7923V13.5423C23.825 12.8447 23.2144 12.3007 22.5 12.3007H20.25Z" fill="#151E3A" stroke="#030000" stroke-width="0.4"/>
</g>
<path id="Vector_2" d="M10.0025 12.0003C9.74252 12.0003 9.4925 11.9003 9.2925 11.7103L7.2925 9.71035C6.9025 9.32035 6.9025 8.69031 7.2925 8.30031C7.6825 7.91031 8.31253 7.91031 8.70253 8.30031L9.99251 9.59035L13.2825 6.30031C13.6725 5.91031 14.3025 5.91031 14.6925 6.30031C15.0825 6.69031 15.0825 7.32035 14.6925 7.71035L10.6925 11.7103C10.4925 11.9103 10.2425 12.0003 9.9825 12.0003H10.0025Z" fill="#21A8F3"/>
</g>
</g>
</g>
</g>
</svg>
