<svg width="73" height="72" viewBox="0 0 73 72" fill="none" xmlns="http://www.w3.org/2000/svg">
<circle cx="36.5" cy="36" r="35.4" stroke="#148FE9" stroke-width="1.2"/>
<path d="M40.5 15H24.5C23.4391 15 22.4217 15.4214 21.6716 16.1716C20.9214 16.9217 20.5 17.9391 20.5 19V51C20.5 52.0609 20.9214 53.0783 21.6716 53.8284C22.4217 54.5786 23.4391 55 24.5 55H48.5C49.5609 55 50.5783 54.5786 51.3284 53.8284C52.0786 53.0783 52.5 52.0609 52.5 51V27L40.5 15Z" stroke="#148FE9" stroke-width="3.2" stroke-linecap="round" stroke-linejoin="round"/>
<path d="M40.5 15V27H52.5" stroke="#148FE9" stroke-width="3.2" stroke-linecap="round" stroke-linejoin="round"/>
<path d="M44.5 37H28.5" stroke="#148FE9" stroke-width="3.2" stroke-linecap="round" stroke-linejoin="round"/>
<path d="M44.5 45H28.5" stroke="#148FE9" stroke-width="3.2" stroke-linecap="round" stroke-linejoin="round"/>
<path d="M32.5 29H30.5H28.5" stroke="#148FE9" stroke-width="3.2" stroke-linecap="round" stroke-linejoin="round"/>
</svg>
