<svg width="53" height="52" viewBox="0 0 53 52" fill="none" xmlns="http://www.w3.org/2000/svg">
<circle cx="26.7302" cy="25.82" r="25.3897" stroke="#148FE9" stroke-width="0.860668"/>
<path d="M15.5898 14.6719C15.5898 13.8969 15.8977 13.1538 16.4456 12.6058C16.9936 12.0578 17.7368 11.75 18.5117 11.75H27.6802C28.0902 11.7502 28.4834 11.9131 28.7733 12.2031L35.6758 19.1056C35.3059 19.3026 34.9681 19.5548 34.6742 19.8536L34.3366 20.1966L28.3086 14.1686V19.4844C28.3086 19.9587 28.6936 20.3438 29.168 20.3438H34.1915L32.4989 22.0625H29.168C28.4842 22.0625 27.8285 21.7909 27.345 21.3074C26.8615 20.8239 26.5898 20.1681 26.5898 19.4844V13.4688H18.5117C18.1926 13.4688 17.8866 13.5955 17.661 13.8211C17.4354 14.0468 17.3086 14.3528 17.3086 14.6719V36.3281C17.3086 36.9929 17.8476 37.5312 18.5117 37.5312H34.668C34.9871 37.5312 35.2931 37.4045 35.5187 37.1789C35.7443 36.9532 35.8711 36.6472 35.8711 36.3281V30.2156L37.5898 28.5229V36.3281C37.5898 37.1031 37.282 37.8462 36.734 38.3942C36.1861 38.9422 35.4429 39.25 34.668 39.25H18.5117C17.7368 39.25 16.9936 38.9422 16.4456 38.3942C15.8977 37.8462 15.5898 37.1031 15.5898 36.3281V14.6719ZM35.6525 20.8181C35.9066 20.564 36.2083 20.3624 36.5404 20.2248C36.8725 20.0873 37.2284 20.0165 37.5878 20.0165C37.9472 20.0165 38.3031 20.0873 38.6352 20.2248C38.9672 20.3624 39.2689 20.564 39.5231 20.8181C39.7772 21.0723 39.9788 21.374 40.1164 21.7061C40.2539 22.0381 40.3247 22.394 40.3247 22.7534C40.3247 23.1129 40.2539 23.4688 40.1164 23.8008C39.9788 24.1329 39.7772 24.4346 39.5231 24.6887L30.0892 33.9769C29.8312 34.2309 29.5109 34.4125 29.1604 34.5035L26.9363 35.0803C26.8034 35.1153 26.666 35.1301 26.5287 35.1243H19.8792C19.6512 35.1243 19.4327 35.0338 19.2715 34.8726C19.1103 34.7114 19.0198 34.4929 19.0198 34.2649C19.0198 34.037 19.1103 33.8184 19.2715 33.6573C19.4327 33.4961 19.6512 33.4056 19.8792 33.4056H25.2609L25.837 31.1808C25.9281 30.83 26.11 30.5094 26.3643 30.2513L35.6525 20.8181Z" fill="#148FE9"/>
</svg>
