<svg width="53" height="52" viewBox="0 0 53 52" fill="none" xmlns="http://www.w3.org/2000/svg">
<circle cx="26.7302" cy="25.82" r="25.3897" stroke="#148FE9" stroke-width="0.860668"/>
<path d="M20.5638 32.6641C20.3594 32.6641 20.1633 32.7453 20.0187 32.8898C19.8742 33.0344 19.793 33.2305 19.793 33.4349C19.793 33.6393 19.8742 33.8354 20.0187 33.98C20.1633 34.1245 20.3594 34.2057 20.5638 34.2057H34.4388C34.6432 34.2057 34.8393 34.1245 34.9839 33.98C35.1284 33.8354 35.2096 33.6393 35.2096 33.4349C35.2096 33.2305 35.1284 33.0344 34.9839 32.8898C34.8393 32.7453 34.6432 32.6641 34.4388 32.6641H20.5638ZM19.793 36.5182C19.793 36.3138 19.8742 36.1177 20.0187 35.9732C20.1633 35.8286 20.3594 35.7474 20.5638 35.7474H29.8138C30.0182 35.7474 30.2143 35.8286 30.3589 35.9732C30.5034 36.1177 30.5846 36.3138 30.5846 36.5182C30.5846 36.7227 30.5034 36.9187 30.3589 37.0633C30.2143 37.2079 30.0182 37.2891 29.8138 37.2891H20.5638C20.3594 37.2891 20.1633 37.2079 20.0187 37.0633C19.8742 36.9187 19.793 36.7227 19.793 36.5182Z" fill="#148FE9"/>
<path fill-rule="evenodd" clip-rule="evenodd" d="M25.1295 20.0289C25.071 19.8885 24.9722 19.7685 24.8455 19.6841C24.7189 19.5997 24.5702 19.5547 24.418 19.5547C24.2659 19.5547 24.1171 19.5997 23.9905 19.6841C23.8639 19.7685 23.7651 19.8885 23.7065 20.0289L20.8221 26.951L20.809 26.9834L19.8524 29.2789C19.7737 29.4676 19.7731 29.6798 19.8509 29.8689C19.9287 30.058 20.0784 30.2084 20.2671 30.2872C20.4558 30.3659 20.668 30.3664 20.8571 30.2886C21.0462 30.2108 21.1966 30.0611 21.2753 29.8724L22.0415 28.034H26.7945L27.5607 29.8724C27.6394 30.0611 27.7899 30.2108 27.979 30.2886C28.168 30.3664 28.3803 30.3659 28.569 30.2872C28.7577 30.2084 28.9074 30.058 28.9851 29.8689C29.0629 29.6798 29.0624 29.4676 28.9837 29.2789L28.0271 26.9834L28.014 26.951L25.1295 20.0289ZM24.418 22.3298L26.1524 26.4923H22.6837L24.418 22.3298Z" fill="#148FE9"/>
<path d="M32.1263 24.1797C32.3307 24.1797 32.5268 24.2609 32.6714 24.4055C32.8159 24.55 32.8971 24.7461 32.8971 24.9505V26.4922H34.4388C34.6432 26.4922 34.8393 26.5734 34.9839 26.718C35.1284 26.8625 35.2096 27.0586 35.2096 27.263C35.2096 27.4675 35.1284 27.6635 34.9839 27.8081C34.8393 27.9526 34.6432 28.0339 34.4388 28.0339H32.8971V29.5755C32.8971 29.78 32.8159 29.976 32.6714 30.1206C32.5268 30.2651 32.3307 30.3464 32.1263 30.3464C31.9219 30.3464 31.7258 30.2651 31.5812 30.1206C31.4367 29.976 31.3555 29.78 31.3555 29.5755V28.0339H29.8138C29.6094 28.0339 29.4133 27.9526 29.2687 27.8081C29.1242 27.6635 29.043 27.4675 29.043 27.263C29.043 27.0586 29.1242 26.8625 29.2687 26.718C29.4133 26.5734 29.6094 26.4922 29.8138 26.4922H31.3555V24.9505C31.3555 24.7461 31.4367 24.55 31.5812 24.4055C31.7258 24.2609 31.9219 24.1797 32.1263 24.1797Z" fill="#148FE9"/>
<path fill-rule="evenodd" clip-rule="evenodd" d="M38.2943 19.5573L30.5859 11.0781H19.7943C18.9765 11.0781 18.1923 11.403 17.614 11.9812C17.0358 12.5594 16.7109 13.3437 16.7109 14.1615V38.8281C16.7109 39.6459 17.0358 40.4301 17.614 41.0084C18.1923 41.5866 18.9765 41.9115 19.7943 41.9115H35.2109C36.0287 41.9115 36.8129 41.5866 37.3912 41.0084C37.9694 40.4301 38.2943 39.6459 38.2943 38.8281V19.5573ZM29.8151 19.5573C29.8151 19.7617 29.8963 19.9578 30.0409 20.1024C30.1854 20.2469 30.3815 20.3281 30.5859 20.3281H36.7526V38.8281C36.7526 39.237 36.5902 39.6291 36.3011 39.9183C36.0119 40.2074 35.6198 40.3698 35.2109 40.3698H19.7943C19.3854 40.3698 18.9933 40.2074 18.7041 39.9183C18.415 39.6291 18.2526 39.237 18.2526 38.8281V14.1615C18.2526 13.7526 18.415 13.3605 18.7041 13.0713C18.9933 12.7822 19.3854 12.6198 19.7943 12.6198H29.8151V19.5573ZM35.51 18.7865L31.3568 14.2177V18.7865H35.51Z" fill="#148FE9"/>
</svg>
