<svg width="31" height="27" viewBox="0 0 31 27" fill="none" xmlns="http://www.w3.org/2000/svg">
<path d="M14.3077 16.1493V23.3035C14.3077 24.2972 13.9599 25.1418 13.2644 25.8373C12.5689 26.5329 11.7244 26.8807 10.7308 26.8807H3.57692C2.58333 26.8807 1.73878 26.5329 1.04327 25.8373C0.347756 25.1418 0 24.2972 0 23.3035V10.1874C0 8.89569 0.251503 7.66295 0.754508 6.48921C1.25751 5.31546 1.9375 4.30008 2.79447 3.44306C3.65144 2.58605 4.66677 1.90602 5.84045 1.40299C7.01412 0.899954 8.24679 0.648438 9.53846 0.648438H10.7308C11.0537 0.648438 11.3331 0.766433 11.5691 1.00242C11.8051 1.23841 11.9231 1.51788 11.9231 1.84081V4.22556C11.9231 4.5485 11.8051 4.82796 11.5691 5.06395C11.3331 5.29994 11.0537 5.41793 10.7308 5.41793H9.53846C8.22195 5.41793 7.09796 5.88371 6.16647 6.81525C5.23498 7.74679 4.76923 8.87085 4.76923 10.1874V10.7836C4.76923 11.2804 4.94311 11.7027 5.29086 12.0505C5.63862 12.3983 6.0609 12.5722 6.55769 12.5722H10.7308C11.7244 12.5722 12.5689 12.92 13.2644 13.6155C13.9599 14.3111 14.3077 15.1557 14.3077 16.1493ZM31 16.1493V23.3035C31 24.2972 30.6522 25.1418 29.9567 25.8373C29.2612 26.5329 28.4167 26.8807 27.4231 26.8807H20.2692C19.2756 26.8807 18.4311 26.5329 17.7356 25.8373C17.0401 25.1418 16.6923 24.2972 16.6923 23.3035V10.1874C16.6923 8.89569 16.9438 7.66295 17.4468 6.48921C17.9498 5.31546 18.6298 4.30008 19.4868 3.44306C20.3438 2.58605 21.3591 1.90602 22.5328 1.40299C23.7064 0.899954 24.9391 0.648438 26.2308 0.648438H27.4231C27.746 0.648438 28.0254 0.766433 28.2614 1.00242C28.4974 1.23841 28.6154 1.51788 28.6154 1.84081V4.22556C28.6154 4.5485 28.4974 4.82796 28.2614 5.06395C28.0254 5.29994 27.746 5.41793 27.4231 5.41793H26.2308C24.9143 5.41793 23.7903 5.88371 22.8588 6.81525C21.9273 7.74679 21.4615 8.87085 21.4615 10.1874V10.7836C21.4615 11.2804 21.6354 11.7027 21.9832 12.0505C22.3309 12.3983 22.7532 12.5722 23.25 12.5722H27.4231C28.4167 12.5722 29.2612 12.92 29.9567 13.6155C30.6522 14.3111 31 15.1557 31 16.1493Z" fill="url(#paint0_linear_1563_8570)"/>
<defs>
<linearGradient id="paint0_linear_1563_8570" x1="0" y1="13.7646" x2="31" y2="13.7646" gradientUnits="userSpaceOnUse">
<stop stop-color="#0F8FB8"/>
<stop offset="1" stop-color="#285BDE"/>
</linearGradient>
</defs>
</svg>
