<svg width="73" height="72" viewBox="0 0 73 72" fill="none" xmlns="http://www.w3.org/2000/svg">
<circle cx="36.5" cy="36" r="35.4" stroke="#148FE9" stroke-width="1.2"/>
<g clip-path="url(#clip0_1563_8115)">
<path d="M42 34.625H31C31 33.1664 31.5795 31.7674 32.6109 30.7359C33.6424 29.7045 35.0414 29.125 36.5 29.125C37.9586 29.125 39.3576 29.7045 40.389 30.7359C41.4205 31.7674 42 33.1664 42 34.625Z" stroke="#148FE9" stroke-width="3" stroke-linecap="round" stroke-linejoin="round"/>
<path d="M32.375 25C32.375 26.094 32.8096 27.1432 33.5832 27.9168C34.3568 28.6904 35.4061 29.125 36.5 29.125C37.594 29.125 38.6432 28.6904 39.4168 27.9168C40.1903 27.1432 40.625 26.094 40.625 25C40.625 23.906 40.1903 22.8568 39.4168 22.0832C38.6432 21.3096 37.594 20.875 36.5 20.875C35.4061 20.875 34.3568 21.3096 33.5832 22.0832C32.8096 22.8568 32.375 23.906 32.375 25Z" stroke="#148FE9" stroke-width="3" stroke-linecap="round" stroke-linejoin="round"/>
<path d="M26.875 15.375H46.125C46.125 15.375 51.625 15.375 51.625 20.875V29.125C51.625 29.125 51.625 34.625 46.125 34.625H26.875C26.875 34.625 21.375 34.625 21.375 29.125V20.875C21.375 20.875 21.375 15.375 26.875 15.375Z" stroke="#148FE9" stroke-width="3" stroke-linecap="round" stroke-linejoin="round"/>
<path d="M18.625 47C18.625 48.094 19.0596 49.1432 19.8332 49.9168C20.6068 50.6903 21.656 51.125 22.75 51.125C23.844 51.125 24.8932 50.6903 25.6668 49.9168C26.4404 49.1432 26.875 48.094 26.875 47C26.875 45.9061 26.4404 44.8568 25.6668 44.0832C24.8932 43.3097 23.844 42.875 22.75 42.875C21.656 42.875 20.6068 43.3097 19.8332 44.0832C19.0596 44.8568 18.625 45.9061 18.625 47Z" stroke="#148FE9" stroke-width="3" stroke-linecap="round" stroke-linejoin="round"/>
<path d="M29.625 56.625C28.9604 55.3789 27.9697 54.337 26.7588 53.6104C25.5478 52.8837 24.1622 52.5 22.75 52.5C21.3378 52.5 19.9522 52.8837 18.7412 53.6104C17.5303 54.337 16.5396 55.3789 15.875 56.625" stroke="#148FE9" stroke-width="3" stroke-linecap="round" stroke-linejoin="round"/>
<path d="M46.125 47C46.125 48.094 46.5597 49.1432 47.3332 49.9168C48.1068 50.6903 49.1561 51.125 50.25 51.125C51.344 51.125 52.3932 50.6903 53.1668 49.9168C53.9403 49.1432 54.375 48.094 54.375 47C54.375 45.9061 53.9403 44.8568 53.1668 44.0832C52.3932 43.3097 51.344 42.875 50.25 42.875C49.1561 42.875 48.1068 43.3097 47.3332 44.0832C46.5597 44.8568 46.125 45.9061 46.125 47Z" stroke="#148FE9" stroke-width="3" stroke-linecap="round" stroke-linejoin="round"/>
<path d="M57.125 56.625C56.4604 55.3789 55.4697 54.337 54.2588 53.6104C53.0478 52.8837 51.6622 52.5 50.25 52.5C48.8378 52.5 47.4522 52.8837 46.2412 53.6104C45.0303 54.337 44.0396 55.3789 43.375 56.625" stroke="#148FE9" stroke-width="3" stroke-linecap="round" stroke-linejoin="round"/>
<path d="M32.375 47C32.375 48.094 32.8096 49.1432 33.5832 49.9168C34.3568 50.6903 35.4061 51.125 36.5 51.125C37.594 51.125 38.6432 50.6903 39.4168 49.9168C40.1903 49.1432 40.625 48.094 40.625 47C40.625 45.9061 40.1903 44.8568 39.4168 44.0832C38.6432 43.3097 37.594 42.875 36.5 42.875C35.4061 42.875 34.3568 43.3097 33.5832 44.0832C32.8096 44.8568 32.375 45.9061 32.375 47Z" stroke="#148FE9" stroke-width="3" stroke-linecap="round" stroke-linejoin="round"/>
<path d="M43.375 56.625C42.7104 55.3789 41.7197 54.337 40.5088 53.6104C39.2978 52.8837 37.9122 52.5 36.5 52.5C35.0878 52.5 33.7021 52.8837 32.4912 53.6104C31.2803 54.337 30.2896 55.3789 29.625 56.625" stroke="#148FE9" stroke-width="3" stroke-linecap="round" stroke-linejoin="round"/>
</g>
<defs>
<clipPath id="clip0_1563_8115">
<rect width="44" height="44" fill="white" transform="translate(14.5 14)"/>
</clipPath>
</defs>
</svg>
