<svg width="23" height="23" viewBox="0 0 23 23" fill="none" xmlns="http://www.w3.org/2000/svg">
<path d="M20.1672 8.92257C20.1095 8.75275 20.0034 8.60354 19.8619 8.49335C19.7204 8.38317 19.5498 8.31682 19.371 8.30252L14.1419 7.88701L11.8791 2.87799C11.807 2.71666 11.6898 2.57964 11.5416 2.48345C11.3933 2.38727 11.2205 2.33603 11.0438 2.33594C10.8671 2.33584 10.6941 2.38688 10.5458 2.48291C10.3975 2.57893 10.2801 2.71582 10.2079 2.87708L7.94504 7.88701L2.71589 8.30252C2.5402 8.31643 2.37224 8.38067 2.2321 8.48755C2.09196 8.59443 1.98558 8.73941 1.92569 8.90517C1.86579 9.07092 1.85492 9.25042 1.89437 9.42219C1.93381 9.59396 2.02191 9.75073 2.14812 9.87374L6.01243 13.6408L4.64575 19.5588C4.60425 19.7379 4.61755 19.9254 4.68393 20.0969C4.7503 20.2684 4.86668 20.416 5.01797 20.5205C5.16925 20.625 5.34846 20.6816 5.53233 20.683C5.71621 20.6844 5.89626 20.6305 6.04912 20.5283L11.0435 17.1988L16.0378 20.5283C16.194 20.6321 16.3783 20.6855 16.5658 20.6814C16.7533 20.6772 16.935 20.6158 17.0866 20.5053C17.2381 20.3948 17.3522 20.2406 17.4134 20.0634C17.4747 19.8861 17.4802 19.6943 17.4292 19.5139L15.7516 13.6436L19.9122 9.89942C20.1846 9.6536 20.2846 9.2702 20.1672 8.92257Z" fill="#E77C40"/>
</svg>
