<svg width="23" height="23" viewBox="0 0 23 23" fill="none" xmlns="http://www.w3.org/2000/svg">
<path d="M6.03288 13.6404L4.6662 19.5584C4.62388 19.7376 4.63658 19.9254 4.70265 20.0972C4.76872 20.2691 4.88509 20.417 5.03655 20.5217C5.18801 20.6264 5.36753 20.683 5.55165 20.6841C5.73578 20.6852 5.91596 20.6308 6.06865 20.5279L11.063 17.1983L16.0573 20.5279C16.2136 20.6316 16.3978 20.685 16.5853 20.6809C16.7728 20.6768 16.9546 20.6154 17.1061 20.5049C17.2576 20.3944 17.3717 20.2401 17.433 20.0629C17.4942 19.8856 17.4997 19.6939 17.4488 19.5134L15.7712 13.6431L19.9317 9.89896C20.065 9.77898 20.1601 9.62256 20.2054 9.44907C20.2507 9.27557 20.2442 9.0926 20.1866 8.92279C20.129 8.75297 20.023 8.60376 19.8815 8.4936C19.74 8.38344 19.5693 8.31716 19.3906 8.30297L14.1614 7.88655L11.8986 2.87753C11.8264 2.71624 11.7091 2.57928 11.5609 2.48318C11.4126 2.38708 11.2397 2.33594 11.063 2.33594C10.8863 2.33594 10.7134 2.38708 10.5651 2.48318C10.4168 2.57928 10.2995 2.71624 10.2274 2.87753L7.96457 7.88655L2.73542 8.30206C2.55973 8.31598 2.39177 8.38022 2.25163 8.48709C2.11149 8.59397 2.00511 8.73895 1.94522 8.90471C1.88532 9.07046 1.87445 9.24996 1.9139 9.42173C1.95334 9.5935 2.04144 9.75027 2.16765 9.87328L6.03288 13.6404ZM8.64975 9.6724C8.81347 9.65951 8.97071 9.6028 9.10497 9.50823C9.23924 9.41366 9.3456 9.28472 9.41289 9.13491L11.063 5.4834L12.7131 9.13491C12.7804 9.28472 12.8867 9.41366 13.021 9.50823C13.1553 9.6028 13.3125 9.65951 13.4762 9.6724L17.1195 9.96133L14.1192 12.6617C13.8587 12.8965 13.7551 13.2579 13.8505 13.5954L14.9998 17.6175L11.573 15.3327C11.4226 15.2317 11.2455 15.1778 11.0644 15.1778C10.8832 15.1778 10.7062 15.2317 10.5558 15.3327L6.97488 17.7202L7.93797 13.5505C7.97329 13.3971 7.96855 13.2372 7.92421 13.0862C7.87988 12.9352 7.79744 12.7982 7.68482 12.6883L4.89826 9.97142L8.64975 9.6724Z" fill="#E77C40"/>
</svg>
