<svg width="23" height="23" viewBox="0 0 23 23" fill="none" xmlns="http://www.w3.org/2000/svg">
<g clip-path="url(#clip0_1563_8566)">
<path d="M21 10.1019C21.1 9.60189 20.7 9.00189 20.2 9.00189L14.5 8.20189L11.9 3.00189C11.8 2.80189 11.7 2.70189 11.5 2.60189C11 2.30189 10.4 2.50189 10.1 3.00189L7.6 8.20189L1.9 9.00189C1.6 9.00189 1.4 9.10189 1.3 9.30189C0.9 9.70189 0.9 10.3019 1.3 10.7019L5.4 14.7019L4.4 20.4019C4.4 20.6019 4.4 20.8019 4.5 21.0019C4.8 21.5019 5.4 21.7019 5.9 21.4019L11 18.7019L16.1 21.4019C16.2 21.5019 16.4 21.5019 16.6 21.5019H16.8C17.3 21.4019 17.7 20.9019 17.6 20.3019L16.6 14.6019L20.7 10.6019C20.9 10.5019 21 10.3019 21 10.1019ZM14.8 13.6019C14.6 13.8019 14.5 14.2019 14.5 14.5019L15.2 18.7019L11.4 16.7019C11.3 16.6019 11.1 16.6019 10.9 16.6019V5.70189L12.8 9.50189C12.9 9.80189 13.2 10.0019 13.6 10.0019L17.8 10.6019L14.8 13.6019Z" fill="#E77C40"/>
</g>
<defs>
<clipPath id="clip0_1563_8566">
<rect width="22.0136" height="22.0136" fill="white" transform="translate(0.0390625 0.5)"/>
</clipPath>
</defs>
</svg>
