<svg width="73" height="72" viewBox="0 0 73 72" fill="none" xmlns="http://www.w3.org/2000/svg">
<circle cx="36.5" cy="36" r="35.4" stroke="#148FE9" stroke-width="1.2"/>
<g clip-path="url(#clip0_1680_5865)">
<path d="M33.4062 26.4297V39.8583L43.9253 46.3487L45.7158 43.663L36.7634 38.2916V26.4297H33.4062Z" fill="#148FE9"/>
<path d="M51.1305 35.3813C51.4678 37.6059 51.3191 39.8771 50.6944 42.0386C50.0698 44.2001 48.9841 46.2006 47.5122 47.9023C46.0402 49.604 44.217 50.9664 42.1679 51.8958C40.1189 52.8252 37.8928 53.2996 35.6429 53.2861C26.9143 53.2861 19.9762 46.348 19.9762 37.6194C19.9762 28.8908 26.9143 21.9528 35.6429 21.9528C37.2095 21.9528 38.709 22.1766 40.119 22.6018V17.9913C38.6867 17.6556 37.1871 17.4766 35.6429 17.4766C24.4524 17.4766 15.5 26.4289 15.5 37.6194C15.5 48.8099 24.4524 57.7623 35.6429 57.7623C38.4801 57.7741 41.2875 57.1838 43.8798 56.0306C46.472 54.8774 48.7902 53.1874 50.6812 51.0722C52.5721 48.957 53.9929 46.4648 54.8497 43.76C55.7065 41.0552 55.9797 38.1995 55.6514 35.3813H51.1305Z" fill="#148FE9"/>
<path d="M55.7842 19.7143V13H51.308V19.7143H44.5938V24.1905H51.308V30.9048H55.7842V24.1905H62.4985V19.7143H55.7842Z" fill="#148FE9"/>
</g>
<defs>
<clipPath id="clip0_1680_5865">
<rect width="48" height="48" fill="white" transform="translate(15.5 13)"/>
</clipPath>
</defs>
</svg>
