<svg width="54" height="52" viewBox="0 0 54 52" fill="none" xmlns="http://www.w3.org/2000/svg">
<circle cx="26.7732" cy="25.82" r="25.3897" stroke="#148FE9" stroke-width="0.860668"/>
<path d="M38.0821 23.8844C38.1783 23.1672 38.227 22.4585 38.2281 21.7586C38.2281 15.2817 32.9786 10.0312 26.5008 10.0312C20.023 10.0312 14.7734 15.2817 14.7734 21.7586C14.7734 30.9418 23.7318 42.0152 26.0699 44.7215C26.1372 44.7994 26.2204 44.8619 26.314 44.9048C26.4076 44.9476 26.5094 44.9698 26.6123 44.9698C26.7153 44.9698 26.817 44.9476 26.9106 44.9048C27.0042 44.8619 27.0875 44.7994 27.1547 44.7215C28.4519 43.195 31.8453 38.9613 34.5364 33.9043" stroke="#148FE9" stroke-width="1.8" stroke-linecap="round" stroke-linejoin="round"/>
<path d="M25.2741 30.1623C25.2741 30.6444 25.0826 31.1068 24.7417 31.4477C24.4007 31.7886 23.9384 31.9801 23.4562 31.9801C22.9741 31.9801 22.5117 31.7886 22.1708 31.4477C21.8299 31.1068 21.6384 30.6444 21.6384 30.1623M25.2741 30.1623C25.2741 29.6801 25.0826 29.2178 24.7417 28.8769C24.4007 28.5359 23.9384 28.3444 23.4562 28.3444C22.9741 28.3444 22.5117 28.5359 22.1708 28.8769C21.8299 29.2178 21.6384 29.6801 21.6384 30.1623M25.2741 30.1623H32.5464M21.6384 30.1623H19.8205V23.7998H18.9116M36.1821 30.1623C36.1821 30.6444 35.9906 31.1068 35.6497 31.4477C35.3088 31.7886 34.8464 31.9801 34.3643 31.9801C33.8822 31.9801 33.4198 31.7886 33.0789 31.4477C32.738 31.1068 32.5464 30.6444 32.5464 30.1623M36.1821 30.1623C36.1821 29.6801 35.9906 29.2178 35.6497 28.8769C35.3088 28.5359 34.8464 28.3444 34.3643 28.3444C33.8822 28.3444 33.4198 28.5359 33.0789 28.8769C32.738 29.2178 32.5464 29.6801 32.5464 30.1623M36.1821 30.1623H38V25.6176L33.4554 21.073M29.8187 21.9819V20.1641H17.0938M33.4545 21.0721H29.8187V30.1623M19.8205 21.9819H18.0027M35.2723 22.8908H31.6366V26.0721H38" stroke="#148FE9" stroke-width="1.6" stroke-linecap="round" stroke-linejoin="round"/>
</svg>
