<svg width="54" height="53" viewBox="0 0 54 53" fill="none" xmlns="http://www.w3.org/2000/svg">
<path d="M25.3147 14.5469C24.5636 14.5575 23.8214 14.5873 23.0881 14.6362C17.5094 15.0069 13.0667 19.5135 12.7014 25.1695C12.6308 26.2884 12.6308 27.4107 12.7014 28.5295C12.8347 30.5895 13.7454 32.4975 14.8187 34.1082C15.4414 35.2349 15.0307 36.6429 14.3814 37.8722C13.9147 38.7589 13.6801 39.2015 13.8681 39.5215C14.0547 39.8415 14.4747 39.8522 15.3134 39.8722C16.9734 39.9122 18.0921 39.4429 18.9801 38.7882C19.4827 38.4162 19.7347 38.2309 19.9081 38.2095C20.0814 38.1882 20.4241 38.3295 21.1067 38.6095C21.7201 38.8629 22.4334 39.0189 23.0867 39.0629C24.9867 39.1882 26.9721 39.1895 28.8761 39.0629C34.4534 38.6922 38.8961 34.1855 39.2614 28.5295C39.3027 27.8762 39.3201 27.2069 39.3134 26.5429" stroke="#148FE9" stroke-width="2" stroke-linecap="round" stroke-linejoin="round"/>
<path d="M21.3203 30.5286H30.6536M21.3203 23.862H24.6536M33.987 13.1953C32.2976 13.1953 31.203 14.2726 29.907 14.6646C29.3816 14.8246 29.1176 14.9046 29.011 15.0166C28.9043 15.1286 28.8736 15.294 28.811 15.622C28.1443 19.1393 29.603 22.3926 33.083 23.658C33.4563 23.794 33.643 23.862 33.9883 23.862C34.331 23.862 34.519 23.794 34.8923 23.658C38.3723 22.3913 39.831 19.1393 39.163 15.622C39.1003 15.2926 39.0696 15.1286 38.963 15.0166C38.8563 14.9046 38.5923 14.8246 38.0656 14.6646C36.771 14.2726 35.675 13.1953 33.987 13.1953Z" stroke="#148FE9" stroke-width="2" stroke-linecap="round" stroke-linejoin="round"/>
<circle cx="26.7732" cy="26.32" r="25.3897" stroke="#148FE9" stroke-width="0.860668"/>
</svg>
