<svg width="19" height="27" viewBox="0 0 19 27" fill="none" xmlns="http://www.w3.org/2000/svg">
<path d="M5.10532 20.1811L3.45632 18.7315C2.8756 18.221 1.95113 18.2598 1.42304 18.8169C0.945784 19.3204 0.959833 20.0758 1.45553 20.5639L6.8308 25.8565C7.17285 26.1932 7.64977 26.3843 8.14985 26.3843C9.13138 26.3843 10.7451 26.3843 12.3424 26.3843C14.5135 26.3843 15.9609 24.7142 15.9609 23.0441C15.9609 23.0441 15.9609 17.3182 15.9609 15.8867" stroke="#21A8F3" stroke-width="1.20038" stroke-linecap="round" stroke-linejoin="round"/>
<path d="M13.2461 16.3637C13.2461 16.3637 13.2461 16.2593 13.2461 15.8866C13.2461 13.9779 15.96 13.9779 15.96 15.8866" stroke="#21A8F3" stroke-width="1.20038" stroke-linecap="round" stroke-linejoin="round"/>
<path d="M10.5312 16.3649C10.5312 16.3649 10.5312 15.6788 10.5312 14.9334C10.5312 13.0248 13.2451 13.0248 13.2451 14.9334C13.2451 15.1198 13.2451 15.7014 13.2451 15.8878C13.2451 16.2605 13.2451 16.3649 13.2451 16.3649" stroke="#21A8F3" stroke-width="1.20038" stroke-linecap="round" stroke-linejoin="round"/>
<path d="M7.81641 16.3629C7.81641 16.3629 7.81641 15.207 7.81641 14.2752C7.81641 12.3666 10.5303 12.3666 10.5303 14.2752C10.5303 14.2752 10.5303 14.745 10.5303 14.9313C10.5303 15.6767 10.5303 16.3629 10.5303 16.3629" stroke="#21A8F3" stroke-width="1.20038" stroke-linecap="round" stroke-linejoin="round"/>
<path d="M5.10547 20.1811V10.9361C5.10547 10.2444 5.71299 9.68359 6.46242 9.68359C7.21181 9.68359 7.81936 10.2435 7.81936 10.9353C7.81936 11.9296 7.81936 13.3089 7.81936 14.2763C7.81936 15.208 7.81936 16.3639 7.81936 16.3639" stroke="#21A8F3" stroke-width="1.20038" stroke-linecap="round" stroke-linejoin="round"/>
<path d="M2.04232 2.3546L2.65048 1.11896C2.72856 0.960345 2.9541 0.960345 3.03217 1.11896L3.64033 2.3546L5.00037 2.55399C5.17487 2.57957 5.2444 2.79467 5.11809 2.91812L4.13415 3.87925L4.36636 5.2371C4.39618 5.41148 4.21367 5.54441 4.05753 5.46207L2.84133 4.82064L1.62512 5.46207C1.46898 5.54441 1.28647 5.41148 1.31629 5.2371L1.5485 3.87925L0.564562 2.91812C0.43823 2.79467 0.507779 2.57957 0.682278 2.55399L2.04232 2.3546Z" stroke="#1C274D" stroke-width="0.841329" stroke-linecap="round" stroke-linejoin="round"/>
<path d="M8.28838 2.35462L8.8966 1.11897C8.97463 0.960344 9.20021 0.960344 9.27824 1.11897L9.88646 2.35462L11.2465 2.55399C11.421 2.57957 11.4905 2.79469 11.3642 2.91809L10.3802 3.87923L10.6124 5.2371C10.6423 5.41148 10.4598 5.54441 10.3036 5.46207L9.08742 4.82063L7.87121 5.46207C7.71507 5.54441 7.53256 5.41148 7.56238 5.2371L7.7946 3.87923L6.81066 2.91809C6.68432 2.79469 6.75387 2.57957 6.92837 2.55399L8.28838 2.35462Z" stroke="#1C274D" stroke-width="0.841329" stroke-linecap="round" stroke-linejoin="round"/>
<path d="M14.5384 2.3546L15.1466 1.11896C15.2246 0.960345 15.4502 0.960345 15.5282 1.11896L16.1364 2.3546L17.4965 2.55399C17.671 2.57957 17.7405 2.79467 17.6142 2.91812L16.6302 3.87925L16.8624 5.2371C16.8923 5.41148 16.7098 5.54441 16.5536 5.46207L15.3374 4.82064L14.1212 5.46207C13.965 5.54441 13.7825 5.41148 13.8124 5.2371L14.0446 3.87925L13.0606 2.91812C12.9343 2.79467 13.0039 2.57957 13.1784 2.55399L14.5384 2.3546Z" stroke="#1C274D" stroke-width="0.841329" stroke-linecap="round" stroke-linejoin="round"/>
</svg>
