<svg width="53" height="52" viewBox="0 0 53 52" fill="none" xmlns="http://www.w3.org/2000/svg">
<circle cx="26.7302" cy="25.82" r="25.3897" stroke="#148FE9" stroke-width="0.860668"/>
<g clip-path="url(#clip0_1563_9837)">
<path d="M25.9102 29.25H19.9102C19.1145 29.25 18.3514 29.5661 17.7888 30.1287C17.2262 30.6913 16.9102 31.4544 16.9102 32.25V34.25H18.9102V32.25C18.9102 31.9848 19.0155 31.7304 19.203 31.5429C19.3906 31.3554 19.6449 31.25 19.9102 31.25H25.9102C26.1754 31.25 26.4297 31.3554 26.6173 31.5429C26.8048 31.7304 26.9102 31.9848 26.9102 32.25V34.25H28.9102V32.25C28.9102 31.4544 28.5941 30.6913 28.0315 30.1287C27.4689 29.5661 26.7058 29.25 25.9102 29.25ZM22.9102 28.25C23.7013 28.25 24.4746 28.0154 25.1324 27.5759C25.7902 27.1364 26.3029 26.5116 26.6057 25.7807C26.9084 25.0498 26.9876 24.2456 26.8333 23.4696C26.679 22.6937 26.298 21.981 25.7386 21.4216C25.1792 20.8622 24.4664 20.4812 23.6905 20.3269C22.9146 20.1725 22.1103 20.2517 21.3794 20.5545C20.6485 20.8572 20.0238 21.3699 19.5843 22.0277C19.1448 22.6855 18.9102 23.4589 18.9102 24.25C18.9102 25.3109 19.3316 26.3283 20.0817 27.0784C20.8319 27.8286 21.8493 28.25 22.9102 28.25ZM22.9102 22.25C23.3057 22.25 23.6924 22.3673 24.0213 22.5871C24.3502 22.8068 24.6065 23.1192 24.7579 23.4846C24.9093 23.8501 24.9489 24.2522 24.8717 24.6402C24.7946 25.0281 24.6041 25.3845 24.3244 25.6642C24.0447 25.9439 23.6883 26.1344 23.3003 26.2116C22.9124 26.2887 22.5102 26.2491 22.1448 26.0978C21.7793 25.9464 21.467 25.69 21.2472 25.3611C21.0275 25.0322 20.9102 24.6456 20.9102 24.25C20.9102 23.7196 21.1209 23.2109 21.4959 22.8358C21.871 22.4607 22.3797 22.25 22.9102 22.25Z" fill="#148FE9"/>
<path d="M38.9102 28.25V37.25H14.9102V17.25H26.9102V15.25H14.9102C14.3797 15.25 13.871 15.4607 13.4959 15.8358C13.1209 16.2109 12.9102 16.7196 12.9102 17.25V37.25C12.9102 37.7804 13.1209 38.2891 13.4959 38.6642C13.871 39.0393 14.3797 39.25 14.9102 39.25H38.9102C39.4406 39.25 39.9493 39.0393 40.3244 38.6642C40.6994 38.2891 40.9102 37.7804 40.9102 37.25V28.25H38.9102Z" fill="#148FE9"/>
<path d="M30.9102 28.25H36.9102V30.25H30.9102V28.25ZM32.9102 32.25H36.9102V34.25H32.9102V32.25ZM42.9102 19.25V17.25H40.8092C40.6794 16.6243 40.4309 16.0292 40.0772 15.497L41.5672 14.007L40.1532 12.593L38.6632 14.083C38.131 13.7292 37.5359 13.4807 36.9102 13.351V11.25H34.9102V13.351C34.2844 13.4807 33.6893 13.7292 33.1572 14.083L31.6672 12.593L30.2532 14.007L31.7432 15.497C31.3894 16.0292 31.1409 16.6243 31.0112 17.25H28.9102V19.25H31.0112C31.1409 19.8757 31.3894 20.4708 31.7432 21.003L30.2532 22.493L31.6672 23.907L33.1572 22.417C33.6893 22.7708 34.2844 23.0193 34.9102 23.149V25.25H36.9102V23.149C37.5359 23.0193 38.131 22.7708 38.6632 22.417L40.1532 23.907L41.5672 22.493L40.0772 21.003C40.4309 20.4708 40.6794 19.8757 40.8092 19.25H42.9102ZM35.9102 21.25C35.3168 21.25 34.7368 21.0741 34.2434 20.7444C33.7501 20.4148 33.3656 19.9462 33.1385 19.3981C32.9115 18.8499 32.852 18.2467 32.9678 17.6647C33.0836 17.0828 33.3693 16.5482 33.7888 16.1287C34.2084 15.7091 34.7429 15.4234 35.3249 15.3076C35.9068 15.1919 36.51 15.2513 37.0582 15.4784C37.6064 15.7054 38.0749 16.0899 38.4046 16.5833C38.7342 17.0766 38.9102 17.6567 38.9102 18.25C38.9094 19.0454 38.593 19.808 38.0306 20.3704C37.4682 20.9329 36.7056 21.2492 35.9102 21.25Z" fill="#148FE9"/>
</g>
<defs>
<clipPath id="clip0_1563_9837">
<rect width="32" height="32" fill="white" transform="translate(10.9102 9.25)"/>
</clipPath>
</defs>
</svg>
