<svg width="53" height="52" viewBox="0 0 53 52" fill="none" xmlns="http://www.w3.org/2000/svg">
<circle cx="26.7302" cy="25.82" r="25.3897" stroke="#148FE9" stroke-width="0.860668"/>
<path d="M42.5779 37.3807L37.282 32.0849C37.7987 30.7932 37.5404 29.1141 36.3779 28.0807C35.2154 26.9182 33.5362 26.6599 32.1154 27.3057L34.5695 29.7599L32.7612 31.5682L30.1779 28.9849C29.532 30.4057 29.7904 32.0849 30.9529 33.3766C32.1154 34.5391 33.6654 34.7974 34.957 34.2807L40.2529 39.5766C40.5112 39.8349 40.8987 39.8349 41.0279 39.5766L42.3195 38.2849C42.707 37.8974 42.707 37.5099 42.5779 37.3807ZM25.9154 25.4974C28.757 25.4974 31.082 23.1724 31.082 20.3307C31.082 17.4891 28.757 15.1641 25.9154 15.1641C23.0737 15.1641 20.7487 17.4891 20.7487 20.3307C20.7487 23.1724 23.0737 25.4974 25.9154 25.4974ZM25.9154 17.7474C27.3362 17.7474 28.4987 18.9099 28.4987 20.3307C28.4987 21.7516 27.3362 22.9141 25.9154 22.9141C24.4945 22.9141 23.332 21.7516 23.332 20.3307C23.332 18.9099 24.4945 17.7474 25.9154 17.7474ZM29.7904 35.8307H15.582V31.9557C15.582 28.4682 22.4279 26.7891 25.9154 26.7891C26.5612 26.7891 27.4654 26.9182 28.3695 27.0474C27.8529 27.6932 27.5945 28.4682 27.3362 29.3724C26.8195 29.3724 26.432 29.2432 25.9154 29.2432C22.0404 29.2432 18.0362 31.1807 18.0362 31.9557V33.3766H27.8529C28.2404 34.4099 29.0154 35.1849 29.7904 35.8307Z" fill="#148FE9"/>
</svg>
