<svg width="35" height="27" viewBox="0 0 35 27" fill="none" xmlns="http://www.w3.org/2000/svg">
<rect width="35" height="27" fill="#475467"/>
<g id="Mobile_Landscape 544_Blue &#38; Glass">
<rect width="544" height="8186" transform="translate(-125 -1730)" fill="white"/>
<g id="Background PickUp2">
<rect width="544" height="727" transform="translate(-125 -698)" fill="white"/>
</g>
<g id="Background Shippers">
<rect width="544" height="925" transform="translate(-125 -48)" fill="white"/>
<g id="Img &#38; Text Shippers">
<g id="Container Shippers">
<g id="Container Shipepers1">
<g id="Title Shippers">
<g id="lucide-warehouse">
<path id="Subtract" fill-rule="evenodd" clip-rule="evenodd" d="M7.29297 25.2059H30.6263V25.229C31.8076 25.229 32.9013 24.8607 33.718 24.2161C34.5346 23.5831 35.0013 22.6854 35.0013 21.7761V8.35576C35.0013 7.66518 34.7388 6.9977 34.2429 6.42221C33.7617 5.85824 33.0617 5.42076 32.245 5.15603L20.5784 1.47299C19.5284 1.13921 18.3909 1.13921 17.3409 1.47299L5.6742 5.15603C4.85753 5.40925 4.15754 5.84672 3.67629 6.41069C3.18045 6.97466 2.91797 7.64215 2.91797 8.34424V21.753C2.91797 22.6623 3.38463 23.56 4.18671 24.1816C5.01796 24.8376 6.11172 25.2059 7.29297 25.2059ZM18.4201 3.60225C18.5951 3.5447 18.7846 3.52175 18.9596 3.52175C19.1492 3.52175 19.3242 3.5447 19.4992 3.60225L31.1659 7.28544C31.443 7.36601 31.6763 7.51561 31.8367 7.69977C31.9972 7.88392 32.0846 8.11404 32.0846 8.34424V21.753C32.0846 22.0523 31.9242 22.3515 31.6472 22.5702C31.3847 22.7889 31.0201 22.904 30.6263 22.904H7.29297C6.9138 22.904 6.54919 22.7889 6.25752 22.5587C5.99502 22.3515 5.83464 22.0523 5.83464 21.753V8.34424C5.83464 8.11404 5.92211 7.89543 6.08253 7.69977C6.24294 7.51561 6.47631 7.37751 6.75339 7.28544L18.4201 3.60225Z" fill="#202A4B"/>
<path id="Vector" d="M27.7083 24.75H10.2083C9.40625 24.75 8.75 24.2438 8.75 23.625V10.125C8.75 9.50625 9.40625 9 10.2083 9H27.7083C28.5104 9 29.1667 9.50625 29.1667 10.125V23.625C29.1667 24.2438 28.5104 24.75 27.7083 24.75ZM11.6667 22.5H26.25V11.25H11.6667V22.5Z" fill="#202A4B"/>
<path id="Vector_2" fill-rule="evenodd" clip-rule="evenodd" d="M25.0718 17.0305L22.8211 16.0338V14.241C22.8211 14.0019 22.7321 13.7628 22.5731 13.5518C22.4078 13.3408 22.1726 13.1627 21.8928 13.0408L19.9855 12.1969C19.3942 11.9344 18.6122 11.9344 18.0209 12.1969L16.1135 13.0408C15.8274 13.1627 15.5922 13.3408 15.4332 13.5518C15.2743 13.7628 15.1853 14.0019 15.1853 14.2457V16.031L12.9282 17.0305C12.6421 17.1524 12.4069 17.3305 12.248 17.5415C12.089 17.7524 12 17.9915 12 18.2353V19.7543C12 19.9934 12.089 20.2325 12.248 20.4435C12.4133 20.6545 12.6485 20.8326 12.9282 20.9545L14.8356 21.7984C15.1153 21.9203 15.4269 21.9906 15.7511 22H15.891C16.2089 21.9906 16.5268 21.9203 16.8002 21.7984L19 20.8279L21.1998 21.7984C21.4796 21.9203 21.7911 21.9906 22.1153 22H22.2489C22.5731 21.9906 22.8846 21.9203 23.1644 21.7984L25.0718 20.9545C25.3579 20.8326 25.5931 20.6545 25.752 20.4435C25.911 20.2325 26 19.9934 26 19.7496V18.2306C26 17.9915 25.911 17.7524 25.752 17.5415C25.5867 17.3305 25.3515 17.1524 25.0718 17.0305ZM19.6421 16.8733L21.5495 16.0307V14.5457L19.6421 15.3896V16.8733ZM18.3706 16.8758L16.4632 16.0319V14.5457L18.3706 15.3896V16.8758ZM19.0064 14.5738L17.0672 13.7159H17.0609L18.6758 13.0033C18.8728 12.9142 19.1335 12.9142 19.3306 13.0033L20.9455 13.7159L19.0064 14.5738ZM18.3706 20.0169L16.4632 20.8607V19.3746L18.3706 18.5307V20.0169ZM21.5495 20.8607L19.6421 20.0169V18.5307L21.5495 19.3746V20.8607ZM13.3669 19.984C13.3161 19.9137 13.2843 19.834 13.2843 19.7543V18.5307L15.1916 19.3746V20.8607L13.5895 20.1528C13.5005 20.1153 13.4242 20.0544 13.3669 19.984ZM24.4233 20.1528L22.8211 20.8607V19.3793L24.7284 18.5354V19.7543C24.7284 19.834 24.6966 19.9137 24.6458 19.984C24.5949 20.0544 24.5186 20.1106 24.4233 20.1528ZM22.1853 18.5588L20.2398 17.7009L22.1853 16.8429L24.1244 17.7009L22.1853 18.5588ZM15.8211 18.5588L13.8819 17.7009L15.8211 16.8429L17.7666 17.7009L15.8211 18.5588Z" fill="#21A8F3"/>
</g>
</g>
</g>
</g>
</g>
</g>
</g>
</svg>
