<svg width="60" height="60" viewBox="0 0 60 60" fill="none" xmlns="http://www.w3.org/2000/svg">
<rect x="0.5" y="0.5" width="59" height="59" rx="29.5" stroke="#148FE9"/>
<g clip-path="url(#clip0_1563_8625)">
<path d="M22.4867 35.3374L21.0104 33.8611L16.4338 35.3226H16.2862C16.2143 35.3267 16.1424 35.3156 16.075 35.2902C16.0076 35.2648 15.9463 35.2255 15.895 35.175L14.8246 34.1195C14.7382 34.0372 14.6829 33.9276 14.6681 33.8092C14.6533 33.6908 14.6799 33.5709 14.7434 33.4699L15.9909 31.3218C16.7636 29.9995 17.8416 28.8813 19.1347 28.0607C20.4279 27.2401 21.8987 26.741 23.4242 26.605L25.2622 26.4426M25.2622 26.4426C26.33 25.173 27.3143 24.0854 28.2148 23.18C29.9235 21.37 31.9631 19.9042 34.2234 18.8617C36.5271 18 38.9768 17.5964 41.4352 17.6733C41.5838 17.6754 41.7261 17.7334 41.8338 17.8357C41.8849 17.8827 41.9257 17.9397 41.9537 18.0032C41.9816 18.0668 41.9961 18.1354 41.9962 18.2048C42.046 20.6704 41.607 23.1215 40.7044 25.4166C39.6887 27.6834 38.2393 29.7296 36.4379 31.4399C35.5299 32.3553 34.4375 33.337 33.1752 34.3926L33.0128 36.2232C32.8804 37.7479 32.3851 39.2189 31.5684 40.5132C30.7518 41.8076 29.6373 42.8878 28.3181 43.6638L26.1849 44.9113C26.1005 44.9551 26.0068 44.9779 25.9118 44.9777C25.7705 44.9748 25.6347 44.9226 25.5279 44.8301L24.4576 43.7524C24.3885 43.6863 24.3394 43.6021 24.3159 43.5094C24.2924 43.4168 24.2954 43.3193 24.3247 43.2283L25.7494 38.6001M25.2622 26.4426L21.0473 33.898M25.7494 38.6001L24.3173 37.168M25.7494 38.6001L33.2047 34.3926M38.2242 24.457C38.2262 23.6556 37.9102 22.8861 37.3456 22.3174C36.781 21.7487 36.0139 21.4271 35.2125 21.4232C34.802 21.4029 34.3917 21.4662 34.0064 21.6094C33.6211 21.7525 33.269 21.9724 32.9713 22.2558C32.6736 22.5392 32.4365 22.8801 32.2746 23.2578C32.1126 23.6356 32.0291 24.0423 32.0291 24.4533C32.0291 24.8643 32.1126 25.271 32.2746 25.6488C32.4365 26.0265 32.6736 26.3674 32.9713 26.6508C33.269 26.9341 33.6211 27.1541 34.0064 27.2972C34.3917 27.4403 34.802 27.5037 35.2125 27.4834C36.0081 27.4838 36.7718 27.1709 37.3384 26.6124C37.6232 26.3314 37.848 25.9954 37.999 25.6249C38.15 25.2544 38.2241 24.857 38.2168 24.457H38.2242Z" stroke="#148FE9" stroke-width="2.3621" stroke-linecap="round" stroke-linejoin="round"/>
<path d="M20 40C22.6823 39.4417 27.4434 34.4174 28 31C24.9422 31.6563 20.4761 36.9824 20 40Z" stroke="#148FE9" stroke-width="2.68925" stroke-linecap="round" stroke-linejoin="round"/>
</g>
<defs>
<clipPath id="clip0_1563_8625">
<rect width="32" height="32" fill="white" transform="translate(13 14)"/>
</clipPath>
</defs>
</svg>
