<svg width="61" height="60" viewBox="0 0 61 60" fill="none" xmlns="http://www.w3.org/2000/svg">
<rect x="0.832031" y="0.5" width="59" height="59" rx="29.5" stroke="#148FE9"/>
<path d="M43.46 39.15L42.1225 38.125C42.1475 37.9125 42.1725 37.7125 42.1725 37.5C42.1725 37.2875 42.16 37.0875 42.1225 36.875L43.4475 35.85C43.5037 35.8018 43.5417 35.7359 43.5553 35.6632C43.569 35.5905 43.5574 35.5153 43.5225 35.45L42.2725 33.2875C42.1975 33.125 42.035 33.125 41.8725 33.125L40.335 33.75C39.9975 33.525 39.66 33.3125 39.2725 33.1625L39.035 31.5125C39.0271 31.4413 38.9936 31.3754 38.9407 31.3271C38.8878 31.2788 38.8191 31.2514 38.7475 31.25H36.2475C36.1711 31.2486 36.0966 31.2741 36.0372 31.3221C35.9778 31.3701 35.9372 31.4375 35.9225 31.5125L35.685 33.1625C35.31 33.325 34.9475 33.525 34.6225 33.75L33.0725 33.125C32.935 33.125 32.7725 33.125 32.685 33.2875L31.435 35.45C31.36 35.5875 31.385 35.75 31.51 35.85L32.835 36.875C32.7852 37.2902 32.7852 37.7098 32.835 38.125L31.51 39.15C31.4538 39.1982 31.4158 39.2641 31.4021 39.3368C31.3885 39.4095 31.4001 39.4847 31.435 39.55L32.685 41.7125C32.76 41.875 32.9225 41.875 33.0725 41.875L34.6225 41.25C34.9475 41.475 35.2975 41.6875 35.685 41.8375L35.9225 43.4875C35.9475 43.6375 36.0725 43.75 36.2475 43.75H38.7475C38.885 43.75 39.0225 43.6375 39.0475 43.4875L39.285 41.8375C39.66 41.675 39.9975 41.475 40.335 41.25L41.8725 41.875C42.035 41.875 42.1975 41.875 42.285 41.7125L43.535 39.55C43.5699 39.4847 43.5815 39.4095 43.5678 39.3368C43.5542 39.2641 43.5162 39.1982 43.46 39.15ZM37.4975 39.375C36.4475 39.375 35.6225 38.5375 35.6225 37.5C35.6225 36.4625 36.46 35.625 37.4975 35.625C38.535 35.625 39.3725 36.4625 39.3725 37.5C39.3725 38.5375 38.535 39.375 37.4975 39.375ZM37.0225 19.025C36.785 18.85 36.5225 18.75 36.2475 18.75H18.7475C18.4725 18.75 18.21 18.85 17.9725 19.025C17.713 19.2294 17.545 19.5283 17.5052 19.8562C17.4654 20.1841 17.557 20.5144 17.76 20.775L23.7475 28.4375V34.8375C23.6975 35.2 23.8225 35.5875 24.11 35.875L29.1225 40.8875C29.2475 41.0125 29.3725 41.1 29.56 41.1625C29.0225 40 28.7475 38.75 28.7475 37.5C28.7475 35.2125 29.6475 33.0125 31.2475 31.375V28.4375L37.235 20.775C37.438 20.5144 37.5296 20.1841 37.4897 19.8562C37.4499 19.5283 37.2819 19.2294 37.0225 19.025ZM28.7475 27.5625V36.975L26.2475 34.475V27.575L21.2975 21.25H33.6975L28.7475 27.5625Z" fill="#148FE9"/>
</svg>
