<svg width="61" height="61" viewBox="0 0 61 61" fill="none" xmlns="http://www.w3.org/2000/svg">
<rect x="1.16797" y="1" width="59" height="59" rx="29.5" stroke="#148FE9"/>
<path d="M24.5932 37.5873H26.0252C26.1684 37.5873 26.3017 37.5632 26.4252 37.515C26.5497 37.4668 26.6697 37.3863 26.7852 37.2735L33.4812 30.7803C33.5959 30.6528 33.6817 30.5193 33.7386 30.3798C33.7955 30.2403 33.8244 30.1017 33.8252 29.9639C33.8261 29.8261 33.7972 29.6897 33.7386 29.5545C33.6817 29.4201 33.5986 29.2888 33.4892 29.1605L32.2559 27.9334C32.1404 27.8223 32.0079 27.7392 31.8586 27.6841C31.7075 27.629 31.5586 27.6015 31.4119 27.6015C31.2697 27.6015 31.1275 27.6251 30.9852 27.6725C30.8439 27.719 30.7075 27.806 30.5759 27.9334L23.8399 34.4202C23.7244 34.5321 23.6417 34.6484 23.5919 34.7689C23.5421 34.8886 23.5172 35.0178 23.5172 35.1564V36.5437C23.5172 36.8433 23.6195 37.0922 23.8239 37.2903C24.0283 37.4883 24.2848 37.5873 24.5932 37.5873ZM31.4039 31.2233L30.1372 30.0027L31.4119 28.7691L32.6452 29.9962L31.4039 31.2233ZM30.7586 37.5873H37.8252C38.0146 37.5873 38.1728 37.5253 38.2999 37.4013C38.4279 37.2782 38.4919 37.1249 38.4919 36.9415C38.4919 36.7572 38.4279 36.6035 38.2999 36.4804C38.1728 36.3572 38.0141 36.2957 37.8239 36.2957H32.0906L30.7586 37.5873ZM23.1066 41.9583L20.8346 44.1593C20.4977 44.4857 20.1084 44.5606 19.6666 44.3841C19.2248 44.2076 19.0039 43.8868 19.0039 43.4218V25.9623C19.0039 25.3673 19.2097 24.8709 19.6212 24.473C20.0328 24.0752 20.5452 23.8759 21.1586 23.875H40.8506C41.4639 23.875 41.9763 24.0743 42.3879 24.473C42.7995 24.8717 43.0048 25.3682 43.0039 25.9623V39.8723C43.0039 40.4665 42.7986 40.9629 42.3879 41.3616C41.9772 41.7603 41.4648 41.9592 40.8506 41.9583H23.1066Z" fill="#148FE9"/>
<g clip-path="url(#clip0_1563_8640)">
<path d="M35.8366 16.5807C35.9747 16.5808 36.1075 16.6337 36.2079 16.7284C36.3083 16.8232 36.3687 16.9528 36.3768 17.0906C36.3849 17.2284 36.34 17.3641 36.2514 17.47C36.1628 17.5759 36.0371 17.6439 35.9 17.6602L35.8366 17.664H28.4776L29.7196 18.906C29.8167 19.0035 29.8731 19.1343 29.8773 19.2719C29.8815 19.4094 29.8332 19.5434 29.7422 19.6466C29.6512 19.7499 29.5243 19.8146 29.3873 19.8276C29.2503 19.8407 29.1135 19.8011 29.0046 19.7169L28.9537 19.6719L26.8791 17.5974C26.5189 17.2377 26.7496 16.6316 27.2382 16.5839L27.3005 16.5807H35.8366ZM33.287 11.3227C33.3803 11.2294 33.5044 11.1734 33.636 11.1651C33.7677 11.1569 33.8978 11.1969 34.002 11.2777L34.0529 11.3227L36.1275 13.3973C36.4877 13.7569 36.257 14.3631 35.7684 14.4107L35.7061 14.414H27.17C27.0319 14.4138 26.8991 14.361 26.7987 14.2662C26.6983 14.1714 26.6379 14.0419 26.6298 13.9041C26.6217 13.7662 26.6666 13.6305 26.7552 13.5247C26.8438 13.4188 26.9695 13.3508 27.1066 13.3344L27.17 13.3307H34.5291L33.287 12.0886C33.1855 11.987 33.1284 11.8493 33.1284 11.7057C33.1284 11.562 33.1855 11.4243 33.287 11.3227Z" fill="#148FE9"/>
</g>
<defs>
<clipPath id="clip0_1563_8640">
<rect width="13" height="13" fill="white" transform="translate(25.0039 9)"/>
</clipPath>
</defs>
</svg>
