<svg width="60" height="60" viewBox="0 0 60 60" fill="none" xmlns="http://www.w3.org/2000/svg">
<rect x="0.5" y="0.5" width="59" height="59" rx="29.5" stroke="#148FE9"/>
<path d="M41.8203 37L38.2069 30.76C38.9463 29.402 39.3315 27.8796 39.3269 26.3333C39.3269 23.858 38.3436 21.484 36.5932 19.7337C34.8429 17.9833 32.4689 17 29.9936 17C27.5182 17 25.1443 17.9833 23.3939 19.7337C21.6436 21.484 20.6603 23.858 20.6603 26.3333C20.6557 27.8796 21.0409 29.402 21.7803 30.76L18.1669 37C18.0497 37.2031 17.9881 37.4335 17.9883 37.668C17.9885 37.9025 18.0506 38.1328 18.1682 38.3356C18.2859 38.5385 18.455 38.7067 18.6584 38.8234C18.8618 38.94 19.0924 39.0009 19.3269 39H23.1536L25.1003 42.28C25.1659 42.3887 25.2467 42.4875 25.3403 42.5733C25.5874 42.8116 25.917 42.9453 26.2603 42.9467H26.4469C26.6482 42.9191 26.8405 42.8459 27.0092 42.7327C27.1779 42.6195 27.3185 42.4692 27.4203 42.2933L29.9936 37.8667L32.5669 42.3333C32.6702 42.5067 32.8114 42.6544 32.98 42.7653C33.1486 42.8761 33.3402 42.9473 33.5403 42.9733H33.7269C34.0748 42.9754 34.4098 42.8414 34.6603 42.6C34.7499 42.519 34.8264 42.4246 34.8869 42.32L36.8336 39.04H40.6603C40.8952 39.0409 41.1262 38.9798 41.3299 38.8627C41.5336 38.7456 41.7028 38.5768 41.8203 38.3733C41.9448 38.166 42.0107 37.9286 42.0107 37.6867C42.0107 37.4447 41.9448 37.2074 41.8203 37ZM26.2469 39.04L25.0603 37.0533C24.9434 36.8562 24.7777 36.6926 24.5792 36.5781C24.3807 36.4637 24.156 36.4023 23.9269 36.4H21.6203L23.5269 33.0933C24.8399 34.3585 26.4947 35.2114 28.2869 35.5467L26.2469 39.04ZM29.9936 33C28.675 33 27.3861 32.609 26.2898 31.8765C25.1935 31.1439 24.339 30.1027 23.8344 28.8846C23.3298 27.6664 23.1978 26.3259 23.455 25.0327C23.7123 23.7395 24.3472 22.5516 25.2795 21.6193C26.2119 20.6869 27.3998 20.052 28.693 19.7948C29.9862 19.5375 31.3266 19.6696 32.5448 20.1741C33.763 20.6787 34.8042 21.5332 35.5367 22.6295C36.2693 23.7259 36.6603 25.0148 36.6603 26.3333C36.6603 28.1014 35.9579 29.7971 34.7076 31.0474C33.4574 32.2976 31.7617 33 29.9936 33ZM36.0603 36.4C35.8311 36.4023 35.6065 36.4637 35.408 36.5781C35.2094 36.6926 35.0438 36.8562 34.9269 37.0533L33.7403 39.04L31.7136 35.5067C33.4996 35.1645 35.1482 34.3124 36.4603 33.0533L38.3669 36.36L36.0603 36.4Z" fill="#148FE9"/>
</svg>
